<svg xmlns="http://www.w3.org/2000/svg" width="112.3" height="117.851" viewBox="0 0 112.3 117.851"><g fill="#001B42" transform="translate(-6.062 -3.085)"><path d="M109.007,31.094H95.659A31.819,31.819,0,0,0,33.65,25.573a1.741,1.741,0,0,0-.714.352L6.733,48.389a1.866,1.866,0,0,0-.671,1.423v67.379a1.862,1.862,0,0,0,1.867,1.872H60.34a1.87,1.87,0,0,0,1.872-1.872V49.812a1.875,1.875,0,0,0-.656-1.423L37.057,27.35A28.077,28.077,0,0,1,91.88,31.095H79.058A9.36,9.36,0,0,0,69.7,40.451V59.169a9.366,9.366,0,0,0,7.489,9.173V70.4A5.616,5.616,0,0,0,82.8,76.015V79.76H80.931a1.872,1.872,0,0,0,0,3.745H82.8v3.745l-1.872,0a1.872,1.872,0,1,0,0,3.745H82.8v3.745H80.931a1.872,1.872,0,0,0,0,3.745H82.8v3.745l-1.872,0a1.872,1.872,0,1,0,0,3.745H82.8v3.745a1.832,1.832,0,0,0,.41,1.177l7.489,9.357,0,0a1.87,1.87,0,0,0,1.462.69h11.229a1.87,1.87,0,0,0,1.872-1.872V76.014a5.616,5.616,0,0,0,5.617-5.617V68.342a9.362,9.362,0,0,0,7.484-9.173V40.45a9.358,9.358,0,0,0-9.357-9.357ZM34.139,47.94a1.878,1.878,0,0,0,1.872-1.872V40.789a5.616,5.616,0,1,1-3.745,0v5.279a1.87,1.87,0,0,0,1.872,1.872Zm24.33,2.731v64.648H9.8V50.671L32.487,31.243a28.877,28.877,0,0,0-.222,3.6v2.056a9.357,9.357,0,1,0,3.745,0V34.838a26.235,26.235,0,0,1,.2-3.257Zm43.049,66.521H93.059l-6.514-8.141V76.016h14.974Zm3.745-44.921H82.8A1.868,1.868,0,0,1,80.932,70.4V68.532h26.2V70.4a1.87,1.87,0,0,1-1.872,1.872Zm9.357-13.1a5.612,5.612,0,0,1-5.612,5.617H79.06a5.616,5.616,0,0,1-5.617-5.617V40.453a5.615,5.615,0,0,1,5.617-5.612h13.1v5.617l-5.617,0a5.617,5.617,0,0,0,0,11.234h14.974a5.617,5.617,0,1,0,0-11.234H95.905V34.841h13.1a5.611,5.611,0,0,1,5.612,5.612ZM94.033,46.07A1.878,1.878,0,0,0,95.906,44.2h5.612a1.872,1.872,0,1,1,0,3.745H86.544a1.872,1.872,0,0,1,0-3.745h5.617a1.878,1.878,0,0,0,1.872,1.872Z" transform="translate(0 0)"/><path d="M77.63,93.227A1.878,1.878,0,0,0,79.5,91.355V67.025a1.872,1.872,0,1,0-3.745,0v24.33a1.878,1.878,0,0,0,1.872,1.872Z" transform="translate(16.402 14.607)"/><path d="M15.9,72.3a1.872,1.872,0,0,0,2.244,3l.748-.56,0,12.16a1.862,1.862,0,0,0,1.867,1.872h7.489A1.87,1.87,0,0,0,30.126,86.9V81.285h3.745V86.9a1.862,1.862,0,0,0,1.867,1.872h7.489A1.87,1.87,0,0,0,45.1,86.9V74.732l.748.56v0a1.882,1.882,0,0,0,1.124.372A1.87,1.87,0,0,0,48.092,72.3L32,60.227Zm25.454-.376v13.1l-3.745,0V79.412a1.87,1.87,0,0,0-1.872-1.872H28.253a1.874,1.874,0,0,0-1.872,1.872v5.617H22.637V71.924L31.993,64.9Z" transform="translate(2.139 13.448)"/></g></svg>