<svg xmlns="http://www.w3.org/2000/svg" width="124.905" height="124.906" viewBox="0 0 124.905 124.906"><g fill="#001B42" transform="translate(-1.563 -1.563)"><path d="M53.823,18.379V14.062H49.793v4.029H43.749V26.15a8.069,8.069,0,0,0,8.058,8.058,4.034,4.034,0,0,1,4.029,4.029v4.029H51.808a4.034,4.034,0,0,1-4.029-4.029V36.223H43.749v2.015a8.048,8.048,0,0,0,6.044,7.771v4.316h4.029V46.3h6.044V38.238a8.069,8.069,0,0,0-8.058-8.058,4.034,4.034,0,0,1-4.029-4.029V22.121h4.029a4.034,4.034,0,0,1,4.029,4.029v2.015h4.029V26.15a8.048,8.048,0,0,0-6.044-7.771Z" transform="translate(12.207 3.617)"/><path d="M106.528,110.352v-28.2h7.59L99.613,57.972H88.266a34.25,34.25,0,1,0-52.111,0H24.8L10.3,82.147h7.59v28.2A10.083,10.083,0,0,0,7.814,120.425v6.044H116.6v-6.044a10.083,10.083,0,0,0-10.073-10.073Zm-4.029,0H82.353V84.535l6.83,5.253L91.64,86.6l-5.782-4.447H102.5Zm-36.263,0H58.177V98.264h8.058ZM54.148,94.235v16.117H46.09V81.432L59.819,70.87a4.012,4.012,0,0,1,4.77,0L78.322,81.432v28.92H70.264V94.235ZM31.987,35.812A30.22,30.22,0,1,1,82.706,57.973H76.1a26.189,26.189,0,1,0-27.78,0H41.71a30.2,30.2,0,0,1-9.721-22.161Zm30.22,22.161A22.161,22.161,0,1,1,84.368,35.812,22.187,22.187,0,0,1,62.207,57.973ZM27.082,62H97.326L107,78.119H80.62L67.042,67.674a8.169,8.169,0,0,0-9.68,0L43.794,78.119H17.417ZM21.915,82.149h16.64L32.773,86.6l2.458,3.193,6.83-5.253v25.817H21.914Zm90.657,40.292H11.841v-2.015a6.049,6.049,0,0,1,6.044-6.044h88.643a6.049,6.049,0,0,1,6.044,6.044Z" transform="translate(1.809 0)"/><path d="M51.356,57.812A6.044,6.044,0,1,0,57.4,63.856a6.049,6.049,0,0,0-6.044-6.044Zm0,8.058a2.015,2.015,0,1,1,2.015-2.015A2.014,2.014,0,0,1,51.356,65.87Z" transform="translate(12.659 16.276)"/><path d="M68.75,85.525H80.838V73.437H68.75Zm4.029-8.058h4.029V81.5H72.779Z" transform="translate(19.441 20.797)"/><path d="M21.875,73.438V85.526H33.963V73.438ZM29.933,81.5H25.9V77.467h4.029Z" transform="translate(5.877 20.797)"/><path d="M79.688,1.563h4.029V5.592H79.688Z" transform="translate(22.606)"/><path d="M79.688,7.813h4.029v4.029H79.688Z" transform="translate(22.606 1.808)"/><path d="M82.812,4.688h4.029V8.717H82.812Z" transform="translate(23.509 0.904)"/><path d="M76.562,4.688h4.029V8.717H76.562Z" transform="translate(21.701 0.904)"/><path d="M92.188,17.188h4.029v4.029H92.188Z" transform="translate(26.222 4.521)"/><path d="M92.188,23.438h4.029v4.029H92.188Z" transform="translate(26.222 6.33)"/><path d="M95.312,20.312h4.029v4.029H95.312Z" transform="translate(27.126 5.425)"/><path d="M89.062,20.312h4.029v4.029H89.062Z" transform="translate(25.318 5.425)"/><path d="M82.812,32.812h4.029v4.029H82.812Z" transform="translate(23.509 9.042)"/><path d="M82.812,39.062h4.029v4.029H82.812Z" transform="translate(23.509 10.85)"/><path d="M85.938,35.938h4.029v4.029H85.938Z" transform="translate(24.414 9.947)"/><path d="M79.688,35.938h4.029v4.029H79.688Z" transform="translate(22.606 9.947)"/><path d="M17.188,1.563h4.029V5.592H17.188Z" transform="translate(4.521)"/><path d="M17.188,7.813h4.029v4.029H17.188Z" transform="translate(4.521 1.808)"/><path d="M14.062,4.688h4.029V8.717H14.062Z" transform="translate(3.617 0.904)"/><path d="M20.312,4.688h4.029V8.717H20.312Z" transform="translate(5.425 0.904)"/><path d="M4.688,17.188H8.717v4.029H4.688Z" transform="translate(0.904 4.521)"/><path d="M4.688,23.438H8.717v4.029H4.688Z" transform="translate(0.904 6.33)"/><path d="M1.563,20.312H5.592v4.029H1.563Z" transform="translate(0 5.425)"/><path d="M7.813,20.312h4.029v4.029H7.813Z" transform="translate(1.808 5.425)"/><path d="M14.062,32.812h4.029v4.029H14.062Z" transform="translate(3.617 9.042)"/><path d="M14.062,39.062h4.029v4.029H14.062Z" transform="translate(3.617 10.85)"/><path d="M10.938,35.938h4.029v4.029H10.938Z" transform="translate(2.713 9.947)"/><path d="M17.188,35.938h4.029v4.029H17.188Z" transform="translate(4.521 9.947)"/></g></svg>