<svg width="224" height="376" viewBox="0 0 224 376" fill="none"
  xmlns="http://www.w3.org/2000/svg">
  <rect x="0.5" y="0.5" width="223" height="375" rx="15.5" fill="white" stroke="#DBDBDB"/>
  <rect x="59" y="31" width="135" height="18" rx="7" fill="#F0EEEE"/>
  <rect x="59" y="79" width="95" height="18" rx="7" fill="#F0EEEE"/>
  <rect x="59" y="127" width="115" height="18" rx="7" fill="#F0EEEE"/>
  <rect x="59" y="175" width="135" height="18" rx="7" fill="#F0EEEE"/>
  <rect x="59" y="223" width="55" height="18" rx="7" fill="#F0EEEE"/>
  <rect x="59" y="271" width="135" height="18" rx="7" fill="#F0EEEE"/>
  <rect x="59" y="319" width="115" height="18" rx="7" fill="#F0EEEE"/>
  <path d="M45.2188 88.3281C45.2188 95.016 39.7972 100.438 33.1094 100.438C26.4215 100.438 21 95.016 21 88.3281C21 81.6403 26.4215 76.2188 33.1094 76.2188C39.7972 76.2188 45.2188 81.6403 45.2188 88.3281ZM31.7087 94.7399L40.6931 85.7556C40.9981 85.4505 40.9981 84.9558 40.6931 84.6507L39.5882 83.5459C39.2832 83.2408 38.7885 83.2408 38.4833 83.5459L31.1562 90.8729L27.7354 87.4521C27.4303 87.147 26.9356 87.147 26.6305 87.4521L25.5257 88.5569C25.2206 88.862 25.2206 89.3567 25.5257 89.6618L30.6038 94.7399C30.9089 95.045 31.4036 95.045 31.7087 94.7399V94.7399Z" fill="#578220"/>
  <path d="M45.2188 184.109C45.2188 190.797 39.7972 196.219 33.1094 196.219C26.4215 196.219 21 190.797 21 184.109C21 177.422 26.4215 172 33.1094 172C39.7972 172 45.2188 177.422 45.2188 184.109ZM31.7087 190.521L40.6931 181.537C40.9981 181.232 40.9981 180.737 40.6931 180.432L39.5882 179.327C39.2832 179.022 38.7885 179.022 38.4833 179.327L31.1562 186.654L27.7354 183.233C27.4303 182.928 26.9356 182.928 26.6305 183.233L25.5257 184.338C25.2206 184.643 25.2206 185.138 25.5257 185.443L30.6038 190.521C30.9089 190.826 31.4036 190.826 31.7087 190.521V190.521Z" fill="#578220"/>
  <path d="M45.2188 232.109C45.2188 238.797 39.7972 244.219 33.1094 244.219C26.4215 244.219 21 238.797 21 232.109C21 225.422 26.4215 220 33.1094 220C39.7972 220 45.2188 225.422 45.2188 232.109ZM31.7087 238.521L40.6931 229.537C40.9981 229.232 40.9981 228.737 40.6931 228.432L39.5882 227.327C39.2832 227.022 38.7885 227.022 38.4833 227.327L31.1562 234.654L27.7354 231.233C27.4303 230.928 26.9356 230.928 26.6305 231.233L25.5257 232.338C25.2206 232.643 25.2206 233.138 25.5257 233.443L30.6038 238.521C30.9089 238.826 31.4036 238.826 31.7087 238.521V238.521Z" fill="#578220"/>
  <path d="M45.2188 280.109C45.2188 286.797 39.7972 292.219 33.1094 292.219C26.4215 292.219 21 286.797 21 280.109C21 273.422 26.4215 268 33.1094 268C39.7972 268 45.2188 273.422 45.2188 280.109ZM31.7087 286.521L40.6931 277.537C40.9981 277.232 40.9981 276.737 40.6931 276.432L39.5882 275.327C39.2832 275.022 38.7885 275.022 38.4833 275.327L31.1562 282.654L27.7354 279.233C27.4303 278.928 26.9356 278.928 26.6305 279.233L25.5257 280.338C25.2206 280.643 25.2206 281.138 25.5257 281.443L30.6038 286.521C30.9089 286.826 31.4036 286.826 31.7087 286.521V286.521Z" fill="#578220"/>
  <path d="M45.2188 328.109C45.2188 334.797 39.7972 340.219 33.1094 340.219C26.4215 340.219 21 334.797 21 328.109C21 321.422 26.4215 316 33.1094 316C39.7972 316 45.2188 321.422 45.2188 328.109ZM31.7087 334.521L40.6931 325.537C40.9981 325.232 40.9981 324.737 40.6931 324.432L39.5882 323.327C39.2832 323.022 38.7885 323.022 38.4833 323.327L31.1562 330.654L27.7354 327.233C27.4303 326.928 26.9356 326.928 26.6305 327.233L25.5257 328.338C25.2206 328.643 25.2206 329.138 25.5257 329.443L30.6038 334.521C30.9089 334.826 31.4036 334.826 31.7087 334.521V334.521Z" fill="#578220"/>
  <circle cx="33" cy="40" r="11.5" stroke="#DBDBDB"/>
  <circle cx="33" cy="136" r="11.5" stroke="#DBDBDB"/>
</svg>
