<svg width="110" height="173" viewBox="0 0 110 173" fill="none"
  xmlns="http://www.w3.org/2000/svg">
  <path d="M82.5553 0.521729H27.1333C12.1522 0.521729 0.00756836 12.6663 0.00756836 27.6474V145.218C0.00756836 160.199 12.1522 172.343 27.1333 172.343H82.5553C97.5364 172.343 109.681 160.199 109.681 145.218V27.6474C109.681 12.6663 97.5364 0.521729 82.5553 0.521729Z" fill="#0B2B44"/>
  <path d="M98.7275 24.4576H10.9888V148.754H98.7275V24.4576Z" fill="white" stroke="#4D4D4D" stroke-width="0.913945"/>
  <path d="M73.0706 11.5961H36.5128V15.2518H73.0706V11.5961Z" fill="white" stroke="#4D4D4D" stroke-width="0.365578" stroke-linecap="round" stroke-linejoin="round"/>
  <path d="M54.8581 153.056C56.7826 153.057 58.6292 153.816 59.9974 155.17C61.3657 156.523 62.1452 158.361 62.1668 160.285C62.1885 162.21 61.4506 164.065 60.1132 165.449C58.7758 166.833 56.9468 167.633 55.0228 167.677C53.0988 167.721 51.2351 167.005 49.8359 165.684C48.4367 164.363 47.6148 162.543 47.5485 160.62C47.4823 158.696 48.177 156.824 49.4819 155.41C50.7869 153.995 52.5969 153.152 54.5194 153.064" fill="white"/>
  <rect x="30" y="54" width="59" height="6" rx="3" fill="#F0EEEE"/>
  <rect x="30" y="69" width="42" height="6" rx="3" fill="#F0EEEE"/>
  <rect x="30" y="85" width="50" height="5" rx="2.5" fill="#F0EEEE"/>
  <rect x="30" y="100" width="59" height="6" rx="3" fill="#F0EEEE"/>
  <rect x="30" y="115" width="24" height="6" rx="3" fill="#F0EEEE"/>
  <rect x="30" y="131" width="59" height="5" rx="2.5" fill="#F0EEEE"/>
  <path d="M25.7271 72.2481C25.7271 74.3819 23.9974 76.1117 21.8636 76.1117C19.7298 76.1117 18 74.3819 18 72.2481C18 70.1143 19.7298 68.3845 21.8636 68.3845C23.9974 68.3845 25.7271 70.1143 25.7271 72.2481ZM21.4167 74.2938L24.2832 71.4273C24.3805 71.33 24.3805 71.1721 24.2832 71.0748L23.9307 70.7223C23.8334 70.6249 23.6755 70.6249 23.5782 70.7223L21.2404 73.06L20.149 71.9686C20.0516 71.8713 19.8938 71.8713 19.7965 71.9686L19.4439 72.3211C19.3466 72.4184 19.3466 72.5763 19.4439 72.6736L21.0642 74.2938C21.1615 74.3912 21.3193 74.3912 21.4167 74.2938V74.2938Z" fill="#578220"/>
  <path d="M25.7271 102.808C25.7271 104.941 23.9974 106.671 21.8636 106.671C19.7298 106.671 18 104.941 18 102.808C18 100.674 19.7298 98.9441 21.8636 98.9441C23.9974 98.9441 25.7271 100.674 25.7271 102.808ZM21.4167 104.853L24.2832 101.987C24.3805 101.89 24.3805 101.732 24.2832 101.634L23.9307 101.282C23.8334 101.185 23.6755 101.185 23.5782 101.282L21.2404 103.62L20.149 102.528C20.0516 102.431 19.8938 102.431 19.7965 102.528L19.4439 102.881C19.3466 102.978 19.3466 103.136 19.4439 103.233L21.0642 104.853C21.1615 104.951 21.3193 104.951 21.4167 104.853V104.853Z" fill="#578220"/>
  <path d="M25.7271 118.122C25.7271 120.256 23.9974 121.986 21.8636 121.986C19.7298 121.986 18 120.256 18 118.122C18 115.989 19.7298 114.259 21.8636 114.259C23.9974 114.259 25.7271 115.989 25.7271 118.122ZM21.4167 120.168L24.2832 117.302C24.3805 117.204 24.3805 117.047 24.2832 116.949L23.9307 116.597C23.8334 116.499 23.6755 116.499 23.5782 116.597L21.2404 118.934L20.149 117.843C20.0516 117.746 19.8938 117.746 19.7965 117.843L19.4439 118.195C19.3466 118.293 19.3466 118.451 19.4439 118.548L21.0642 120.168C21.1615 120.266 21.3193 120.266 21.4167 120.168V120.168Z" fill="#578220"/>
  <path d="M25.7271 133.437C25.7271 135.571 23.9974 137.301 21.8636 137.301C19.7298 137.301 18 135.571 18 133.437C18 131.303 19.7298 129.573 21.8636 129.573C23.9974 129.573 25.7271 131.303 25.7271 133.437ZM21.4167 135.483L24.2832 132.616C24.3805 132.519 24.3805 132.361 24.2832 132.264L23.9307 131.911C23.8334 131.814 23.6755 131.814 23.5782 131.911L21.2404 134.249L20.149 133.158C20.0516 133.06 19.8938 133.06 19.7965 133.158L19.4439 133.51C19.3466 133.607 19.3466 133.765 19.4439 133.863L21.0642 135.483C21.1615 135.58 21.3193 135.58 21.4167 135.483V135.483Z" fill="#578220"/>
  <circle cx="21.8287" cy="56.8287" r="3.32868" stroke="#DBDBDB"/>
  <circle cx="21.8287" cy="87.4581" r="3.32868" stroke="#DBDBDB"/>
  <g clip-path="url(#clip0_12_564)">
    <path fill-rule="evenodd" clip-rule="evenodd" d="M60.2503 29.7054L60.3543 29.7575H61.8738C61.9311 29.7575 61.9834 29.7897 62.0103 29.8408L62.0136 29.8473L62.1354 30.1067L62.2384 30.3261L62.3422 30.547L62.4597 30.7973C62.4803 30.8411 62.5194 30.8728 62.5659 30.8833C62.9442 30.9689 63.4074 31.0753 63.9555 31.2023C64.5338 31.3364 64.9345 30.7608 65.1574 29.4755L65.1641 29.4364L65.1688 29.4172C65.3243 28.7859 65.6014 28.4773 66 28.4911C65.7889 28.6537 65.6657 29.1929 65.6304 30.109L65.6293 30.1369L65.6306 30.1642C65.6689 31.0614 65.4083 31.6765 64.8489 32.0095C64.3948 32.2798 63.9247 32.3595 63.4385 32.2486C63.402 32.2402 63.3637 32.2475 63.3326 32.2687C63.2718 32.3103 63.2541 32.393 63.2913 32.4564L63.295 32.4623L63.3269 32.511C63.3466 32.5411 63.3521 32.5786 63.3418 32.6132C63.3235 32.675 63.261 32.7108 63.2003 32.6956L63.1942 32.6939L63.0775 32.6579C63.063 32.6534 63.0479 32.6511 63.0327 32.6511C62.9493 32.6511 62.8813 32.7182 62.8778 32.8024L62.8777 32.8092V34.1736C62.8777 34.2586 62.8119 34.328 62.7294 34.3316L62.7227 34.3317H62.7115C62.6998 34.3317 62.6883 34.3334 62.6771 34.3366C62.6124 34.3554 62.5741 34.4226 62.5892 34.4887L62.5908 34.4948L63.0483 36.1343C63.0661 36.1979 63.0431 36.2658 62.9914 36.3048L62.9855 36.309L62.0105 36.9755C61.9873 36.9913 61.9604 37.0005 61.9326 37.002L61.9243 37.0022H60.9737C60.9559 37.0022 60.9382 36.9991 60.9215 36.993L60.9132 36.9897L60.0243 36.6055C59.9582 36.577 59.8818 36.5985 59.8394 36.6569L59.8353 36.6628L59.4611 37.2299C59.4149 37.2998 59.3235 37.3202 59.2533 37.2775L59.2471 37.2736L58.977 37.0917C58.9759 37.0909 58.9747 37.0902 58.9735 37.0894C58.9029 37.0446 58.8107 37.0648 58.7641 37.134L58.7601 37.1403L58.1692 38.1105C58.1573 38.1301 58.1414 38.1467 58.1225 38.1593C58.053 38.2058 57.9603 38.1879 57.9121 38.1199L57.9079 38.1138L57.8332 37.9974C57.8112 37.9632 57.775 37.9414 57.735 37.9383C57.6661 37.9329 57.6056 37.9838 57.597 38.0531L57.5964 38.0596L57.3881 40.8303C57.3821 40.9103 57.3184 40.9727 57.2405 40.9762L57.2336 40.9763H55.5737C55.5133 40.9763 55.4587 40.9405 55.4333 40.8851L55.4305 40.8786L54.8497 39.445C54.8328 39.4034 54.7992 39.371 54.7575 39.3561C54.6788 39.3282 54.5931 39.3686 54.5625 39.4468L54.5601 39.4534L54.0757 40.8703C54.0548 40.9315 53.9994 40.9732 53.9364 40.9761L53.9294 40.9763H52.6105C52.5272 40.9763 52.4592 40.9092 52.4557 40.825L52.4555 40.8182V38.9438C52.4555 38.8793 52.4172 38.8216 52.3592 38.7974L52.3526 38.7948L51.1081 38.3416C51.0743 38.3293 51.0374 38.3293 51.0038 38.3416L50.9961 38.3447L49.4046 39.0255C49.3552 39.0466 49.3202 39.0922 49.3116 39.1459L49.3106 39.1532L49.1206 40.8363C49.1118 40.9137 49.0492 40.9728 48.9735 40.9762L48.9666 40.9763H47.6096C47.5263 40.9763 47.4583 40.9092 47.4548 40.825L47.4547 40.8182V38.8233C47.4547 38.7717 47.4299 38.7233 47.3884 38.6937C47.3203 38.6451 47.2272 38.6602 47.1769 38.7267L47.1726 38.7327L45.6823 40.9088C45.6547 40.949 45.6105 40.9737 45.5628 40.9761L45.5552 40.9763H44.04C44.0362 40.9763 44.0323 40.9762 44.0284 40.9759C43.9453 40.9695 43.8825 40.8973 43.8851 40.8132L43.8855 40.8063L44.1201 37.6225C44.122 37.5967 44.1176 37.5707 44.1074 37.547C44.0739 37.4692 43.9864 37.4327 43.9095 37.4632L43.9031 37.4659L43.2454 37.7611C43.2023 37.7805 43.1529 37.7788 43.1111 37.7565C43.0374 37.7172 43.0076 37.6257 43.0425 37.5496L43.0456 37.5431L43.98 35.7206C43.9975 35.6864 44.0022 35.6468 43.9931 35.6093C43.9731 35.5268 43.893 35.4756 43.8122 35.4922L43.8054 35.4937L43.1968 35.6473C43.1577 35.6571 43.1163 35.651 43.0814 35.6303C43.0096 35.5874 42.9841 35.4947 43.0224 35.4202L43.0258 35.4139L44.8791 32.1786C44.8946 32.1515 44.9177 32.1298 44.9452 32.1161L44.9528 32.1126L47.8529 30.8667L47.9445 30.8303C48.258 30.7052 48.5691 30.5764 48.8779 30.4437C48.87 30.523 48.8643 30.6431 48.8588 30.7693L48.8575 30.7985C48.8469 31.0476 48.8368 31.3096 48.8138 31.3219C48.6681 31.3993 48.139 31.637 47.2267 32.035C46.5075 33.2169 46.5593 34.4428 47.3818 35.7127C48.6156 37.6176 55.6352 34.6131 55.6352 33.4933L55.6352 33.4249C55.6347 32.2888 55.6075 30.2273 54.2486 29.4865C53.8076 29.3569 53.1335 29.3972 52.1573 29.7521C52.0959 29.7744 52.1165 29.0749 52.2289 28.8185C52.2317 28.8221 51.7457 29.0718 51.6979 29.0908C51.6792 29.0982 51.6753 29.2139 51.6751 29.3568L51.6751 29.383C51.6751 29.414 51.6753 29.4459 51.6755 29.4781L51.6757 29.5057C51.6769 29.7083 51.678 29.911 51.6523 29.9216C51.3344 30.0517 50.8678 30.2665 50.3931 30.4958L50.3361 30.5234L50.2791 30.5511L50.2221 30.5788L50.1652 30.6067C49.9094 30.732 49.6579 30.8583 49.4327 30.9746C49.3926 30.9953 49.396 30.7188 49.4113 30.4336L49.4126 30.4098C49.4133 30.3979 49.414 30.386 49.4147 30.3741L49.4161 30.3504C49.4191 30.3001 49.4225 30.2504 49.4259 30.2029C50.5772 29.6866 51.6954 29.116 52.7806 28.4911C54.338 27.5944 56.8279 27.9991 60.2503 29.7054ZM55.8463 28.946C56.6163 31.0213 55.9002 31.1595 56.571 32.1076C56.5812 32.1177 56.5915 32.1279 56.6021 32.1382C57.3052 32.8221 58.1802 32.9711 59.2274 32.5852C59.7118 32.422 59.9841 32.273 60.0443 32.1382C60.1428 31.4905 59.9712 31.2137 59.5292 31.3076C58.9136 31.4896 58.3465 31.6264 57.8279 31.7181C57.05 31.8556 57.0175 30.8265 56.6021 29.6445C56.4459 29.1607 55.6447 28.1681 55.8463 28.946Z" fill="#D2D2D2"/>
  </g>
  <defs>
    <clipPath id="clip0_12_564">
      <rect width="23" height="13" fill="white" transform="translate(43 28)"/>
    </clipPath>
  </defs>
</svg>
