<svg width="184" height="251" viewBox="0 0 184 251" fill="none"
  xmlns="http://www.w3.org/2000/svg">
  <path d="M161.302 0.45874H23.1777C10.8438 0.45874 0.845215 10.4574 0.845215 22.7913V228.547C0.845215 240.881 10.8438 250.88 23.1777 250.88H161.302C173.636 250.88 183.634 240.881 183.634 228.547V22.7913C183.634 10.4574 173.636 0.45874 161.302 0.45874Z" fill="#0B2B44"/>
  <path d="M166.63 19.2327H16.9241V217.56H166.63V19.2327Z" fill="white" stroke="#4D4D4D" stroke-width="0.912768"/>
  <path d="M91.7411 227.26C93.6695 227.256 95.5217 228.012 96.896 229.365C98.2703 230.718 99.0558 232.558 99.0822 234.486C99.1085 236.414 98.3736 238.275 97.0368 239.665C95.7001 241.055 93.8692 241.862 91.9415 241.91C90.0137 241.959 88.1444 241.246 86.7392 239.925C85.3339 238.605 84.506 236.783 84.4349 234.856C84.3639 232.929 85.0554 231.052 86.3596 229.631C87.6639 228.211 89.4755 227.362 91.4016 227.268" fill="white"/>
  <path d="M62.4948 227.261C64.4231 227.257 66.2754 228.013 67.6497 229.366C69.0239 230.719 69.8095 232.559 69.8358 234.487C69.8622 236.415 69.1273 238.276 67.7905 239.666C66.4537 241.056 64.6229 241.863 62.6951 241.911C60.7673 241.96 58.8981 241.247 57.4928 239.926C56.0876 238.606 55.2596 236.784 55.1886 234.857C55.1175 232.93 55.8091 231.053 57.1133 229.632C58.4175 228.212 60.2292 227.363 62.1553 227.269" fill="white"/>
  <path d="M120.026 227.261C121.954 227.257 123.806 228.013 125.181 229.366C126.555 230.719 127.34 232.559 127.367 234.487C127.393 236.415 126.658 238.276 125.321 239.666C123.985 241.056 122.154 241.863 120.226 241.911C118.298 241.96 116.429 241.247 115.024 239.926C113.619 238.606 112.791 236.784 112.72 234.857C112.649 232.93 113.34 231.053 114.644 229.632C115.949 228.212 117.76 227.363 119.686 227.269" fill="white"/>
  <rect x="51.071" y="65.6726" width="98.6825" height="10.0355" rx="5.01776" fill="#F0EEEE"/>
  <rect x="51.071" y="90.7614" width="70.2486" height="10.0355" rx="5.01776" fill="#F0EEEE"/>
  <rect x="51.071" y="117.523" width="83.6293" height="8.36293" rx="4.18146" fill="#F0EEEE"/>
  <rect x="51.071" y="142.612" width="98.6825" height="10.0355" rx="5.01776" fill="#F0EEEE"/>
  <rect x="51.071" y="167.7" width="40.142" height="10.0355" rx="5.01776" fill="#F0EEEE"/>
  <rect x="51.071" y="194.462" width="98.6825" height="8.36293" rx="4.18146" fill="#F0EEEE"/>
  <path d="M43.9243 96.1942C43.9243 99.7632 41.0311 102.656 37.4622 102.656C33.8932 102.656 31 99.7632 31 96.1942C31 92.6253 33.8932 89.7321 37.4622 89.7321C41.0311 89.7321 43.9243 92.6253 43.9243 96.1942ZM36.7147 99.6159L41.5092 94.8214C41.672 94.6586 41.672 94.3946 41.5092 94.2318L40.9196 93.6422C40.7568 93.4794 40.4928 93.4794 40.33 93.6422L36.4199 97.5523L34.5943 95.7267C34.4315 95.5639 34.1676 95.5639 34.0047 95.7267L33.4151 96.3163C33.2523 96.4791 33.2523 96.7431 33.4151 96.9059L36.1251 99.6158C36.2879 99.7787 36.5519 99.7787 36.7147 99.6159V99.6159Z" fill="#578220"/>
  <path d="M43.9243 147.308C43.9243 150.877 41.0311 153.77 37.4622 153.77C33.8932 153.77 31 150.877 31 147.308C31 143.739 33.8932 140.845 37.4622 140.845C41.0311 140.845 43.9243 143.739 43.9243 147.308ZM36.7147 150.729L41.5092 145.935C41.672 145.772 41.672 145.508 41.5092 145.345L40.9196 144.756C40.7568 144.593 40.4928 144.593 40.33 144.756L36.4199 148.666L34.5943 146.84C34.4315 146.677 34.1676 146.677 34.0047 146.84L33.4151 147.43C33.2523 147.593 33.2523 147.857 33.4151 148.019L36.1251 150.729C36.2879 150.892 36.5519 150.892 36.7147 150.729V150.729Z" fill="#578220"/>
  <path d="M43.9243 172.923C43.9243 176.492 41.0311 179.385 37.4622 179.385C33.8932 179.385 31 176.492 31 172.923C31 169.354 33.8932 166.461 37.4622 166.461C41.0311 166.461 43.9243 169.354 43.9243 172.923ZM36.7147 176.345L41.5092 171.55C41.672 171.387 41.672 171.123 41.5092 170.961L40.9196 170.371C40.7568 170.208 40.4928 170.208 40.33 170.371L36.4199 174.281L34.5943 172.455C34.4315 172.293 34.1676 172.293 34.0047 172.455L33.4151 173.045C33.2523 173.208 33.2523 173.472 33.4151 173.635L36.1251 176.345C36.2879 176.507 36.5519 176.507 36.7147 176.345V176.345Z" fill="#578220"/>
  <path d="M43.9243 198.538C43.9243 202.107 41.0311 205 37.4622 205C33.8932 205 31 202.107 31 198.538C31 194.969 33.8932 192.076 37.4622 192.076C41.0311 192.076 43.9243 194.969 43.9243 198.538ZM36.7147 201.96L41.5092 197.165C41.672 197.002 41.672 196.738 41.5092 196.575L40.9196 195.986C40.7568 195.823 40.4928 195.823 40.33 195.986L36.4199 199.896L34.5943 198.07C34.4315 197.908 34.1676 197.908 34.0047 198.07L33.4151 198.66C33.2523 198.823 33.2523 199.087 33.4151 199.25L36.1251 201.959C36.2879 202.122 36.5519 202.122 36.7147 201.96V201.96Z" fill="#578220"/>
  <circle cx="37.4038" cy="70.4038" r="5.90379" stroke="#DBDBDB"/>
  <circle cx="37.4038" cy="121.634" r="5.90379" stroke="#DBDBDB"/>
  <g clip-path="url(#clip0_12_565)">
    <path fill-rule="evenodd" clip-rule="evenodd" d="M100.25 30.6237L100.409 30.7038H102.721C102.808 30.7038 102.888 30.7534 102.929 30.832L102.934 30.842L103.119 31.2411L103.276 31.5786L103.434 31.9184L103.613 32.3035C103.644 32.3709 103.704 32.4197 103.774 32.4359C104.35 32.5676 105.055 32.7312 105.889 32.9266C106.769 33.1329 107.379 32.2473 107.718 30.27L107.728 30.2098L107.735 30.1802C107.972 29.2091 108.393 28.7342 109 28.7556C108.679 29.0056 108.491 29.8353 108.438 31.2446L108.436 31.2875L108.438 31.3295C108.496 32.7098 108.1 33.6562 107.248 34.1685C106.557 34.5844 105.842 34.7069 105.102 34.5362C105.047 34.5234 104.988 34.5346 104.941 34.5673C104.848 34.6312 104.821 34.7585 104.878 34.856L104.884 34.865L104.932 34.94C104.962 34.9863 104.971 35.0439 104.955 35.0972C104.927 35.1923 104.832 35.2474 104.74 35.2239L104.73 35.2213L104.553 35.1659C104.531 35.159 104.508 35.1555 104.485 35.1555C104.358 35.1555 104.254 35.2588 104.249 35.3883L104.249 35.3988V37.4978C104.249 37.6286 104.149 37.7353 104.023 37.7408L104.013 37.7411H103.996C103.978 37.7411 103.96 37.7436 103.943 37.7486C103.845 37.7775 103.787 37.8809 103.81 37.9825L103.812 37.992L104.508 40.5143C104.535 40.6121 104.5 40.7166 104.422 40.7766L104.413 40.7831L102.929 41.8084C102.894 41.8328 102.853 41.8468 102.811 41.8492L102.798 41.8495H101.351C101.324 41.8495 101.297 41.8447 101.272 41.8353L101.259 41.8303L99.9065 41.2392C99.8059 41.1953 99.6897 41.2285 99.6252 41.3182L99.6189 41.3274L99.0495 42.1998C98.9793 42.3073 98.8402 42.3387 98.7333 42.273L98.7239 42.267L98.3129 41.9872C98.3111 41.986 98.3093 41.9848 98.3075 41.9837C98.2 41.9148 98.0597 41.9459 97.9888 42.0523L97.9827 42.0619L97.0836 43.5546C97.0655 43.5847 97.0412 43.6103 97.0126 43.6297C96.9067 43.7013 96.7657 43.6737 96.6923 43.569L96.686 43.5596L96.5723 43.3806C96.5389 43.328 96.4837 43.2944 96.4229 43.2896C96.318 43.2813 96.2259 43.3597 96.2129 43.4662L96.2119 43.4763L95.895 47.7388C95.8859 47.862 95.7889 47.9579 95.6704 47.9633L95.6599 47.9635H93.134C93.0421 47.9635 92.9589 47.9085 92.9203 47.8232L92.916 47.8132L92.0321 45.6077C92.0064 45.5436 91.9554 45.4938 91.8918 45.471C91.7722 45.4279 91.6416 45.4901 91.5951 45.6104L91.5915 45.6206L90.8544 47.8004C90.8225 47.8946 90.7383 47.9588 90.6424 47.9633L90.6317 47.9635H88.6247C88.4979 47.9635 88.3944 47.8603 88.3891 47.7308L88.3889 47.7202V44.8366C88.3889 44.7374 88.3306 44.6485 88.2422 44.6113L88.2323 44.6074L86.3385 43.9101C86.287 43.8911 86.2309 43.8913 86.1797 43.9102L86.168 43.9149L83.7462 44.9622C83.671 44.9948 83.6177 45.0649 83.6046 45.1474L83.6031 45.1588L83.314 47.7481C83.3007 47.8672 83.2053 47.9581 83.0902 47.9633L83.0797 47.9635H81.0147C80.8879 47.9635 80.7844 47.8603 80.7791 47.7308L80.7788 47.7202V44.6513C80.7788 44.5718 80.7412 44.4973 80.6781 44.4518C80.5744 44.377 80.4327 44.4003 80.3562 44.5026L80.3497 44.5119L78.0817 47.8596C78.0398 47.9215 77.9726 47.9596 77.8999 47.9632L77.8884 47.9635H75.5827C75.5768 47.9635 75.5709 47.9633 75.565 47.9628C75.4385 47.953 75.3429 47.842 75.347 47.7125L75.3475 47.702L75.7045 42.8039C75.7074 42.7641 75.7008 42.7242 75.6852 42.6876C75.6342 42.568 75.501 42.5119 75.3841 42.5588L75.3744 42.5629L74.3734 43.0171C74.3078 43.0469 74.2326 43.0443 74.1691 43.01C74.0569 42.9494 74.0116 42.8088 74.0647 42.6916L74.0695 42.6816L75.4913 39.8778C75.518 39.8252 75.5251 39.7643 75.5112 39.7066C75.4808 39.5797 75.359 39.5009 75.2359 39.5264L75.2257 39.5288L74.2996 39.765C74.24 39.7802 74.177 39.7708 74.1239 39.7388C74.0146 39.6729 73.9758 39.5302 74.0341 39.4157L74.0394 39.406L76.8596 34.4285C76.8832 34.3869 76.9182 34.3535 76.9601 34.3325L76.9717 34.3271L81.3848 32.4103L81.5243 32.3543C82.0013 32.1619 82.4747 31.9636 82.9446 31.7594C82.9326 31.8815 82.9239 32.0663 82.9156 32.2604L82.9137 32.3054C82.8974 32.6886 82.8821 33.0917 82.8471 33.1105C82.6254 33.2297 81.8203 33.5954 80.4319 34.2077C79.3376 36.0259 79.4163 37.9119 80.668 39.8657C82.5456 42.7963 93.2276 38.174 93.2276 36.4512L93.2275 36.346C93.2267 34.5982 93.1854 31.4265 91.1174 30.2869C90.4464 30.0875 89.4206 30.1495 87.9351 30.6954C87.8416 30.7298 87.8729 29.6536 88.044 29.2591C88.0483 29.2648 87.3088 29.6489 87.236 29.6781C87.2075 29.6895 87.2016 29.8675 87.2012 30.0873L87.2012 30.1277C87.2013 30.1753 87.2016 30.2245 87.2019 30.2739L87.2021 30.3164C87.204 30.6281 87.2057 30.94 87.1666 30.9562C86.6828 31.1565 85.9727 31.4869 85.2504 31.8396L85.1637 31.8821L85.0769 31.9247L84.9902 31.9674L84.9036 32.0102C84.5144 32.2031 84.1316 32.3974 83.7889 32.5763C83.7279 32.6081 83.7331 32.1827 83.7564 31.744L83.7583 31.7074C83.7594 31.6891 83.7604 31.6708 83.7615 31.6525L83.7636 31.616C83.7683 31.5386 83.7734 31.4622 83.7786 31.3891C85.5305 30.5947 87.2321 29.7169 88.8835 28.7556C91.2535 27.3759 95.0425 27.9986 100.25 30.6237ZM93.5487 29.4554C94.7205 32.6481 93.6308 32.8607 94.6516 34.3194C94.667 34.3349 94.6828 34.3506 94.6989 34.3664C95.7687 35.4186 97.1004 35.6478 98.6938 35.0541C99.4309 34.803 99.8453 34.5737 99.937 34.3664C100.087 33.37 99.8257 32.9441 99.1532 33.0887C98.2164 33.3686 97.3533 33.5791 96.5642 33.7201C95.3804 33.9317 95.331 32.3485 94.6989 30.5299C94.4612 29.7857 93.2419 28.2586 93.5487 29.4554Z" fill="#D2D2D2"/>
  </g>
  <defs>
    <clipPath id="clip0_12_565">
      <rect width="35" height="20" fill="white" transform="translate(74 28)"/>
    </clipPath>
  </defs>
</svg>
