<svg width="484" height="376" viewBox="0 0 484 376" fill="none"
  xmlns="http://www.w3.org/2000/svg">
  <rect x="0.5" y="0.5" width="483" height="375" rx="15.5" fill="white" stroke="#DBDBDB"/>
  <rect x="19" y="31" width="135" height="18" rx="7" fill="#D2D2D2"/>
  <rect x="19" y="68" width="135" height="18" rx="7" fill="#F0EEEE"/>
  <rect x="176" y="68" width="49" height="18" rx="7" fill="#F0EEEE"/>
  <rect x="303" y="68" width="45" height="18" rx="9" fill="#F0EEEE"/>
  <rect x="357" y="68" width="45" height="18" rx="9" fill="#F0EEEE"/>
  <rect x="19" y="104" width="135" height="18" rx="7" fill="#F0EEEE"/>
  <rect x="176" y="104" width="69" height="18" rx="7" fill="#F0EEEE"/>
  <rect x="303" y="104" width="54" height="18" rx="9" fill="#F0EEEE"/>
  <rect x="19" y="142" width="135" height="18" rx="7" fill="#F0EEEE"/>
  <rect x="176" y="142" width="32" height="18" rx="7" fill="#F0EEEE"/>
  <rect x="303" y="142" width="26" height="18" rx="9" fill="#F0EEEE"/>
  <rect x="335" y="142" width="38" height="18" rx="9" fill="#F0EEEE"/>
  <rect x="380" y="142" width="38" height="18" rx="9" fill="#F0EEEE"/>
  <rect x="19" y="179" width="135" height="18" rx="7" fill="#F0EEEE"/>
  <rect x="176" y="179" width="59" height="18" rx="7" fill="#F0EEEE"/>
  <rect x="303" y="179" width="40" height="18" rx="9" fill="#F0EEEE"/>
  <rect x="348" y="179" width="58" height="18" rx="9" fill="#F0EEEE"/>
  <rect x="19" y="215" width="135" height="18" rx="7" fill="#F0EEEE"/>
  <rect x="176" y="215" width="69" height="18" rx="7" fill="#F0EEEE"/>
  <rect x="303" y="215" width="54" height="18" rx="9" fill="#F0EEEE"/>
  <rect x="364" y="215" width="54" height="18" rx="9" fill="#F0EEEE"/>
  <rect x="19" y="252" width="135" height="18" rx="7" fill="#F0EEEE"/>
  <rect x="176" y="252" width="75" height="18" rx="7" fill="#F0EEEE"/>
  <rect x="303" y="252" width="29" height="18" rx="9" fill="#F0EEEE"/>
  <rect x="339" y="252" width="29" height="18" rx="9" fill="#F0EEEE"/>
  <rect x="19" y="290" width="135" height="18" rx="7" fill="#F0EEEE"/>
  <rect x="176" y="290" width="65" height="18" rx="7" fill="#F0EEEE"/>
  <rect x="303" y="290" width="86" height="18" rx="9" fill="#F0EEEE"/>
  <rect x="19" y="327" width="135" height="18" rx="7" fill="#F0EEEE"/>
  <rect x="176" y="327" width="49" height="18" rx="7" fill="#F0EEEE"/>
  <rect x="303" y="327" width="45" height="18" rx="9" fill="#F0EEEE"/>
  <rect x="176" y="31" width="109" height="18" rx="7" fill="#D2D2D2"/>
  <rect x="305" y="31" width="109" height="18" rx="7" fill="#D2D2D2"/>
  <rect x="424" y="31" width="48" height="18" rx="7" fill="#D2D2D2"/>
  <line x1="23" y1="58.5" x2="470" y2="58.5" stroke="#F0EEEE"/>
  <line x1="23" y1="94.5" x2="470" y2="94.5" stroke="#F0EEEE"/>
  <line x1="23" y1="131.5" x2="470" y2="131.5" stroke="#F0EEEE"/>
  <line x1="23" y1="168.5" x2="470" y2="168.5" stroke="#F0EEEE"/>
  <line x1="23" y1="205.5" x2="470" y2="205.5" stroke="#F0EEEE"/>
  <line x1="23" y1="242.5" x2="470" y2="242.5" stroke="#F0EEEE"/>
  <line x1="23" y1="279.5" x2="470" y2="279.5" stroke="#F0EEEE"/>
  <line x1="23" y1="316.5" x2="470" y2="316.5" stroke="#F0EEEE"/>
  <line x1="23" y1="353.5" x2="470" y2="353.5" stroke="#F0EEEE"/>
  <path d="M467.559 72.4385L466.119 73.8791C465.972 74.026 465.734 74.026 465.587 73.8791L462.118 70.4103C461.972 70.2634 461.972 70.0259 462.118 69.879L463.559 68.4383C464.144 67.8539 465.094 67.8539 465.681 68.4383L467.559 70.3165C468.147 70.9009 468.147 71.8509 467.559 72.4385ZM460.881 71.1165L452.674 79.3231L452.012 83.1201C451.921 83.6327 452.368 84.0764 452.881 83.9889L456.678 83.3233L464.884 75.1167C465.031 74.9698 465.031 74.7323 464.884 74.5854L461.415 71.1165C461.265 70.9696 461.028 70.9696 460.881 71.1165V71.1165ZM455.878 78.62C455.706 78.4481 455.706 78.1731 455.878 78.0012L460.69 73.1885C460.862 73.0166 461.137 73.0166 461.309 73.1885C461.481 73.3604 461.481 73.6354 461.309 73.8073L456.496 78.62C456.324 78.7918 456.049 78.7918 455.878 78.62V78.62ZM454.749 81.2482H456.249V82.3826L454.234 82.7357L453.262 81.7638L453.615 79.7481H454.749V81.2482Z" fill="#D2D2D2"/>
  <path d="M467.559 109.438L466.119 110.879C465.972 111.026 465.734 111.026 465.587 110.879L462.118 107.41C461.972 107.263 461.972 107.026 462.118 106.879L463.559 105.438C464.144 104.854 465.094 104.854 465.681 105.438L467.559 107.316C468.147 107.901 468.147 108.851 467.559 109.438ZM460.881 108.117L452.674 116.323L452.012 120.12C451.921 120.633 452.368 121.076 452.881 120.989L456.678 120.323L464.884 112.117C465.031 111.97 465.031 111.732 464.884 111.585L461.415 108.117C461.265 107.97 461.028 107.97 460.881 108.117V108.117ZM455.878 115.62C455.706 115.448 455.706 115.173 455.878 115.001L460.69 110.188C460.862 110.017 461.137 110.017 461.309 110.188C461.481 110.36 461.481 110.635 461.309 110.807L456.496 115.62C456.324 115.792 456.049 115.792 455.878 115.62V115.62ZM454.749 118.248H456.249V119.383L454.234 119.736L453.262 118.764L453.615 116.748H454.749V118.248Z" fill="#D2D2D2"/>
  <path d="M467.559 147.438L466.119 148.879C465.972 149.026 465.734 149.026 465.587 148.879L462.118 145.41C461.972 145.263 461.972 145.026 462.118 144.879L463.559 143.438C464.144 142.854 465.094 142.854 465.681 143.438L467.559 145.316C468.147 145.901 468.147 146.851 467.559 147.438ZM460.881 146.117L452.674 154.323L452.012 158.12C451.921 158.633 452.368 159.076 452.881 158.989L456.678 158.323L464.884 150.117C465.031 149.97 465.031 149.732 464.884 149.585L461.415 146.117C461.265 145.97 461.028 145.97 460.881 146.117V146.117ZM455.878 153.62C455.706 153.448 455.706 153.173 455.878 153.001L460.69 148.188C460.862 148.017 461.137 148.017 461.309 148.188C461.481 148.36 461.481 148.635 461.309 148.807L456.496 153.62C456.324 153.792 456.049 153.792 455.878 153.62V153.62ZM454.749 156.248H456.249V157.383L454.234 157.736L453.262 156.764L453.615 154.748H454.749V156.248Z" fill="#D2D2D2"/>
  <path d="M467.559 184.438L466.119 185.879C465.972 186.026 465.734 186.026 465.587 185.879L462.118 182.41C461.972 182.263 461.972 182.026 462.118 181.879L463.559 180.438C464.144 179.854 465.094 179.854 465.681 180.438L467.559 182.316C468.147 182.901 468.147 183.851 467.559 184.438ZM460.881 183.117L452.674 191.323L452.012 195.12C451.921 195.633 452.368 196.076 452.881 195.989L456.678 195.323L464.884 187.117C465.031 186.97 465.031 186.732 464.884 186.585L461.415 183.117C461.265 182.97 461.028 182.97 460.881 183.117V183.117ZM455.878 190.62C455.706 190.448 455.706 190.173 455.878 190.001L460.69 185.188C460.862 185.017 461.137 185.017 461.309 185.188C461.481 185.36 461.481 185.635 461.309 185.807L456.496 190.62C456.324 190.792 456.049 190.792 455.878 190.62V190.62ZM454.749 193.248H456.249V194.383L454.234 194.736L453.262 193.764L453.615 191.748H454.749V193.248Z" fill="#D2D2D2"/>
  <path d="M467.559 220.438L466.119 221.879C465.972 222.026 465.734 222.026 465.587 221.879L462.118 218.41C461.972 218.263 461.972 218.026 462.118 217.879L463.559 216.438C464.144 215.854 465.094 215.854 465.681 216.438L467.559 218.316C468.147 218.901 468.147 219.851 467.559 220.438ZM460.881 219.117L452.674 227.323L452.012 231.12C451.921 231.633 452.368 232.076 452.881 231.989L456.678 231.323L464.884 223.117C465.031 222.97 465.031 222.732 464.884 222.585L461.415 219.117C461.265 218.97 461.028 218.97 460.881 219.117V219.117ZM455.878 226.62C455.706 226.448 455.706 226.173 455.878 226.001L460.69 221.188C460.862 221.017 461.137 221.017 461.309 221.188C461.481 221.36 461.481 221.635 461.309 221.807L456.496 226.62C456.324 226.792 456.049 226.792 455.878 226.62V226.62ZM454.749 229.248H456.249V230.383L454.234 230.736L453.262 229.764L453.615 227.748H454.749V229.248Z" fill="#D2D2D2"/>
  <path d="M467.559 257.438L466.119 258.879C465.972 259.026 465.734 259.026 465.587 258.879L462.118 255.41C461.972 255.263 461.972 255.026 462.118 254.879L463.559 253.438C464.144 252.854 465.094 252.854 465.681 253.438L467.559 255.316C468.147 255.901 468.147 256.851 467.559 257.438ZM460.881 256.117L452.674 264.323L452.012 268.12C451.921 268.633 452.368 269.076 452.881 268.989L456.678 268.323L464.884 260.117C465.031 259.97 465.031 259.732 464.884 259.585L461.415 256.117C461.265 255.97 461.028 255.97 460.881 256.117V256.117ZM455.878 263.62C455.706 263.448 455.706 263.173 455.878 263.001L460.69 258.188C460.862 258.017 461.137 258.017 461.309 258.188C461.481 258.36 461.481 258.635 461.309 258.807L456.496 263.62C456.324 263.792 456.049 263.792 455.878 263.62V263.62ZM454.749 266.248H456.249V267.383L454.234 267.736L453.262 266.764L453.615 264.748H454.749V266.248Z" fill="#D2D2D2"/>
  <path d="M467.559 295.438L466.119 296.879C465.972 297.026 465.734 297.026 465.587 296.879L462.118 293.41C461.972 293.263 461.972 293.026 462.118 292.879L463.559 291.438C464.144 290.854 465.094 290.854 465.681 291.438L467.559 293.316C468.147 293.901 468.147 294.851 467.559 295.438ZM460.881 294.117L452.674 302.323L452.012 306.12C451.921 306.633 452.368 307.076 452.881 306.989L456.678 306.323L464.884 298.117C465.031 297.97 465.031 297.732 464.884 297.585L461.415 294.117C461.265 293.97 461.028 293.97 460.881 294.117V294.117ZM455.878 301.62C455.706 301.448 455.706 301.173 455.878 301.001L460.69 296.188C460.862 296.017 461.137 296.017 461.309 296.188C461.481 296.36 461.481 296.635 461.309 296.807L456.496 301.62C456.324 301.792 456.049 301.792 455.878 301.62V301.62ZM454.749 304.248H456.249V305.383L454.234 305.736L453.262 304.764L453.615 302.748H454.749V304.248Z" fill="#D2D2D2"/>
  <path d="M467.559 332.438L466.119 333.879C465.972 334.026 465.734 334.026 465.587 333.879L462.118 330.41C461.972 330.263 461.972 330.026 462.118 329.879L463.559 328.438C464.144 327.854 465.094 327.854 465.681 328.438L467.559 330.316C468.147 330.901 468.147 331.851 467.559 332.438ZM460.881 331.117L452.674 339.323L452.012 343.12C451.921 343.633 452.368 344.076 452.881 343.989L456.678 343.323L464.884 335.117C465.031 334.97 465.031 334.732 464.884 334.585L461.415 331.117C461.265 330.97 461.028 330.97 460.881 331.117V331.117ZM455.878 338.62C455.706 338.448 455.706 338.173 455.878 338.001L460.69 333.188C460.862 333.017 461.137 333.017 461.309 333.188C461.481 333.36 461.481 333.635 461.309 333.807L456.496 338.62C456.324 338.792 456.049 338.792 455.878 338.62V338.62ZM454.749 341.248H456.249V342.383L454.234 342.736L453.262 341.764L453.615 339.748H454.749V341.248Z" fill="#D2D2D2"/>
  <circle cx="432" cy="75" r="5" fill="#D10101"/>
  <circle cx="432" cy="111" r="5" fill="#578220"/>
  <circle cx="432" cy="149" r="5" fill="#B35900"/>
  <circle cx="432" cy="186" r="5" fill="#0B2B44"/>
  <circle cx="432" cy="222" r="5" fill="#578220"/>
  <circle cx="432" cy="259" r="5" fill="#7D2600"/>
  <circle cx="432" cy="297" r="5" fill="#41688B"/>
  <circle cx="432" cy="334" r="5" fill="#4A555A"/>
</svg>
