<svg width="224" height="376" viewBox="0 0 224 376" fill="none"
  xmlns="http://www.w3.org/2000/svg">
  <rect x="0.5" y="0.5" width="223" height="375" rx="15.5" fill="white" stroke="#DBDBDB"/>
  <rect x="59" y="79" width="95" height="18" rx="7" fill="#F0EEEE"/>
  <rect x="59" y="127" width="115" height="18" rx="7" fill="#F0EEEE"/>
  <rect x="59" y="175" width="135" height="18" rx="7" fill="#F0EEEE"/>
  <rect x="59" y="223" width="55" height="18" rx="7" fill="#F0EEEE"/>
  <rect x="59" y="271" width="135" height="18" rx="7" fill="#F0EEEE"/>
  <rect x="59" y="319" width="115" height="18" rx="7" fill="#F0EEEE"/>
  <path d="M45.2188 88.3281C45.2188 95.016 39.7972 100.438 33.1094 100.438C26.4215 100.438 21 95.016 21 88.3281C21 81.6403 26.4215 76.2188 33.1094 76.2188C39.7972 76.2188 45.2188 81.6403 45.2188 88.3281ZM31.7087 94.7399L40.6931 85.7556C40.9981 85.4505 40.9981 84.9558 40.6931 84.6507L39.5882 83.5459C39.2832 83.2408 38.7885 83.2408 38.4833 83.5459L31.1562 90.8729L27.7354 87.4521C27.4303 87.147 26.9356 87.147 26.6305 87.4521L25.5257 88.5569C25.2206 88.862 25.2206 89.3567 25.5257 89.6618L30.6038 94.7399C30.9089 95.045 31.4036 95.045 31.7087 94.7399V94.7399Z" fill="#578220"/>
  <path d="M45.2188 184.109C45.2188 190.797 39.7972 196.219 33.1094 196.219C26.4215 196.219 21 190.797 21 184.109C21 177.422 26.4215 172 33.1094 172C39.7972 172 45.2188 177.422 45.2188 184.109ZM31.7087 190.521L40.6931 181.537C40.9981 181.232 40.9981 180.737 40.6931 180.432L39.5882 179.327C39.2832 179.022 38.7885 179.022 38.4833 179.327L31.1562 186.654L27.7354 183.233C27.4303 182.928 26.9356 182.928 26.6305 183.233L25.5257 184.338C25.2206 184.643 25.2206 185.138 25.5257 185.443L30.6038 190.521C30.9089 190.826 31.4036 190.826 31.7087 190.521Z" fill="#578220"/>
  <path d="M45.2188 232.109C45.2188 238.797 39.7972 244.219 33.1094 244.219C26.4215 244.219 21 238.797 21 232.109C21 225.422 26.4215 220 33.1094 220C39.7972 220 45.2188 225.422 45.2188 232.109ZM31.7087 238.521L40.6931 229.537C40.9981 229.232 40.9981 228.737 40.6931 228.432L39.5882 227.327C39.2832 227.022 38.7885 227.022 38.4833 227.327L31.1562 234.654L27.7354 231.233C27.4303 230.928 26.9356 230.928 26.6305 231.233L25.5257 232.338C25.2206 232.643 25.2206 233.138 25.5257 233.443L30.6038 238.521C30.9089 238.826 31.4036 238.826 31.7087 238.521V238.521Z" fill="#578220"/>
  <path d="M45.2188 280.109C45.2188 286.797 39.7972 292.219 33.1094 292.219C26.4215 292.219 21 286.797 21 280.109C21 273.422 26.4215 268 33.1094 268C39.7972 268 45.2188 273.422 45.2188 280.109ZM31.7087 286.521L40.6931 277.537C40.9981 277.232 40.9981 276.737 40.6931 276.432L39.5882 275.327C39.2832 275.022 38.7885 275.022 38.4833 275.327L31.1562 282.654L27.7354 279.233C27.4303 278.928 26.9356 278.928 26.6305 279.233L25.5257 280.338C25.2206 280.643 25.2206 281.138 25.5257 281.443L30.6038 286.521C30.9089 286.826 31.4036 286.826 31.7087 286.521V286.521Z" fill="#578220"/>
  <path d="M45.2188 328.109C45.2188 334.797 39.7972 340.219 33.1094 340.219C26.4215 340.219 21 334.797 21 328.109C21 321.422 26.4215 316 33.1094 316C39.7972 316 45.2188 321.422 45.2188 328.109ZM31.7087 334.521L40.6931 325.537C40.9981 325.232 40.9981 324.737 40.6931 324.432L39.5882 323.327C39.2832 323.022 38.7885 323.022 38.4833 323.327L31.1562 330.654L27.7354 327.233C27.4303 326.928 26.9356 326.928 26.6305 327.233L25.5257 328.338C25.2206 328.643 25.2206 329.138 25.5257 329.443L30.6038 334.521C30.9089 334.826 31.4036 334.826 31.7087 334.521V334.521Z" fill="#578220"/>
  <circle cx="33" cy="136" r="11.5" stroke="#DBDBDB"/>
  <path d="M34.232 40.77C34.232 39.1273 33.6967 37.8953 32.626 37.074C31.57 36.238 30.118 35.82 28.27 35.82H23.386V51H27.148V45.962H28.116C29.04 45.962 29.876 45.852 30.624 45.632C31.372 45.412 32.01 45.0893 32.538 44.664C33.0807 44.224 33.4987 43.6813 33.792 43.036C34.0853 42.3907 34.232 41.6353 34.232 40.77ZM30.58 40.836C30.58 41.628 30.3527 42.2073 29.898 42.574C29.458 42.9407 28.82 43.124 27.984 43.124H27.104V38.658H28.05C29.7367 38.658 30.58 39.384 30.58 40.836ZM44.4173 45.588C44.4173 44.8107 44.322 44.0847 44.1313 43.41C43.9406 42.7207 43.6473 42.1267 43.2513 41.628C42.87 41.1147 42.3786 40.7187 41.7773 40.44C41.176 40.1467 40.4646 40 39.6433 40C38.91 40 38.228 40.132 37.5973 40.396C36.9813 40.6453 36.446 41.0193 35.9913 41.518C35.5513 42.002 35.1993 42.596 34.9353 43.3C34.686 43.9893 34.5613 44.774 34.5613 45.654C34.5613 46.622 34.6933 47.458 34.9573 48.162C35.236 48.8513 35.6173 49.4233 36.1013 49.878C36.6 50.3327 37.1866 50.67 37.8613 50.89C38.5506 51.11 39.2986 51.22 40.1053 51.22C40.956 51.22 41.7333 51.1173 42.4373 50.912C43.156 50.692 43.8086 50.3913 44.3953 50.01L44.0653 47.678C43.464 48.0153 42.87 48.2867 42.2833 48.492C41.7113 48.6973 41.1246 48.8 40.5233 48.8C39.79 48.8 39.1886 48.624 38.7193 48.272C38.25 47.9053 37.9713 47.2967 37.8833 46.446H44.3513C44.3806 46.358 44.3953 46.2333 44.3953 46.072C44.41 45.9107 44.4173 45.7493 44.4173 45.588ZM41.2493 44.62H37.8613C37.92 43.784 38.096 43.168 38.3893 42.772C38.6973 42.3613 39.086 42.156 39.5553 42.156C40.5673 42.156 41.132 42.9773 41.2493 44.62ZM53.1487 43.388L52.5987 40C51.8067 40.0587 51.1614 40.3153 50.6627 40.77C50.1787 41.21 49.7754 41.738 49.4527 42.354L49.1007 40.22H46.1967V51H49.5187V45.016C49.9294 44.576 50.4354 44.2093 51.0367 43.916C51.6381 43.6227 52.3421 43.4467 53.1487 43.388ZM62.8083 47.678C62.8083 47.1793 62.7423 46.754 62.6103 46.402C62.4783 46.05 62.2583 45.742 61.9503 45.478C61.6423 45.214 61.2389 44.9793 60.7403 44.774C60.2563 44.5687 59.6549 44.3707 58.9363 44.18C58.5549 44.0773 58.2469 43.982 58.0123 43.894C57.7776 43.806 57.5943 43.7253 57.4623 43.652C57.3303 43.564 57.2349 43.476 57.1763 43.388C57.1323 43.3 57.1103 43.1973 57.1103 43.08C57.1103 42.8747 57.1983 42.706 57.3743 42.574C57.5649 42.442 57.8583 42.376 58.2543 42.376C58.7676 42.376 59.3396 42.464 59.9703 42.64C60.6009 42.816 61.2096 43.0653 61.7963 43.388L62.2143 40.858C61.6569 40.6087 61.0336 40.418 60.3443 40.286C59.6696 40.1393 58.9656 40.066 58.2323 40.066C56.8976 40.066 55.8709 40.374 55.1523 40.99C54.4483 41.5913 54.0963 42.398 54.0963 43.41C54.0963 43.9233 54.1696 44.356 54.3163 44.708C54.4629 45.06 54.6903 45.368 54.9983 45.632C55.3209 45.896 55.7243 46.1233 56.2083 46.314C56.6923 46.5047 57.2716 46.688 57.9463 46.864C58.3276 46.952 58.6356 47.04 58.8703 47.128C59.1049 47.216 59.2883 47.304 59.4203 47.392C59.5523 47.48 59.6403 47.5753 59.6843 47.678C59.7429 47.7807 59.7723 47.898 59.7723 48.03C59.7723 48.5727 59.3176 48.844 58.4083 48.844C57.7923 48.844 57.1176 48.734 56.3843 48.514C55.6656 48.2793 54.9836 47.964 54.3383 47.568L53.9423 50.098C54.4996 50.3913 55.1596 50.648 55.9223 50.868C56.6996 51.0733 57.5209 51.176 58.3863 51.176C59.8236 51.176 60.9163 50.8827 61.6643 50.296C62.4269 49.6947 62.8083 48.822 62.8083 47.678ZM74.4214 45.61C74.4214 44.7447 74.2894 43.9673 74.0254 43.278C73.7614 42.5887 73.3947 42.002 72.9254 41.518C72.4707 41.034 71.928 40.66 71.2974 40.396C70.6667 40.132 69.9774 40 69.2294 40C68.4814 40 67.792 40.132 67.1614 40.396C66.5307 40.66 65.9807 41.034 65.5114 41.518C65.0567 42.002 64.6974 42.596 64.4334 43.3C64.184 43.9893 64.0594 44.7667 64.0594 45.632C64.0594 46.4973 64.184 47.2747 64.4334 47.964C64.6974 48.6533 65.0567 49.24 65.5114 49.724C65.9807 50.208 66.5234 50.582 67.1394 50.846C67.77 51.0953 68.4594 51.22 69.2074 51.22C69.9554 51.22 70.6447 51.088 71.2754 50.824C71.9207 50.56 72.4707 50.186 72.9254 49.702C73.3947 49.218 73.7614 48.6313 74.0254 47.942C74.2894 47.2527 74.4214 46.4753 74.4214 45.61ZM71.2094 45.632C71.2094 46.512 71.0407 47.216 70.7034 47.744C70.366 48.272 69.8747 48.536 69.2294 48.536C68.5987 48.536 68.1147 48.272 67.7774 47.744C67.44 47.2013 67.2714 46.49 67.2714 45.61C67.2714 44.73 67.4327 44.0333 67.7554 43.52C68.0927 42.992 68.584 42.728 69.2294 42.728C69.8747 42.728 70.366 42.992 70.7034 43.52C71.0407 44.048 71.2094 44.752 71.2094 45.632ZM85.7809 51V43.344C85.7809 42.288 85.5243 41.4667 85.0109 40.88C84.4976 40.2933 83.7349 40 82.7229 40C82.0336 40 81.4176 40.1687 80.8749 40.506C80.3469 40.8287 79.8409 41.2247 79.3569 41.694L79.1149 40.22H76.1889V51H79.5109V43.916C79.8043 43.6227 80.0976 43.388 80.3909 43.212C80.6989 43.036 81.0143 42.948 81.3369 42.948C81.7329 42.948 82.0116 43.0727 82.1729 43.322C82.3489 43.5567 82.4369 43.8647 82.4369 44.246V51H85.7809ZM96.9593 51V43.784C96.9593 42.4053 96.5927 41.4373 95.8593 40.88C95.126 40.3227 94.0113 40.044 92.5153 40.044C91.6353 40.044 90.836 40.1247 90.1173 40.286C89.4133 40.4327 88.7533 40.6307 88.1373 40.88L88.5333 43.388C89.1053 43.1387 89.67 42.9407 90.2273 42.794C90.7993 42.6473 91.3933 42.574 92.0093 42.574C93.0947 42.574 93.6373 43.0287 93.6373 43.938V44.136C91.5253 44.3267 89.9707 44.7447 88.9733 45.39C87.976 46.0207 87.4773 46.9667 87.4773 48.228C87.4773 49.2107 87.7487 49.9587 88.2913 50.472C88.834 50.9707 89.538 51.22 90.4033 51.22C91.1513 51.22 91.7893 51.0807 92.3173 50.802C92.86 50.5087 93.3513 50.1273 93.7913 49.658L94.0113 51H96.9593ZM93.6373 48.03C93.0213 48.5727 92.4053 48.844 91.7893 48.844C91.4813 48.844 91.232 48.756 91.0413 48.58C90.8507 48.3893 90.7553 48.1253 90.7553 47.788C90.7553 47.5533 90.7993 47.3333 90.8873 47.128C90.9753 46.908 91.1293 46.71 91.3493 46.534C91.5693 46.358 91.8627 46.204 92.2293 46.072C92.596 45.94 93.0653 45.83 93.6373 45.742V48.03ZM102.566 51V35.116L99.2217 35.644V51H102.566ZM113.603 51V35.82H109.841V51H113.603ZM122.638 50.934L122.22 48.206C121.956 48.2793 121.692 48.316 121.428 48.316C120.548 48.316 120.108 47.8907 120.108 47.04V42.926H122.572L122.154 40.22H120.108V36.502L116.808 37.008V40.22H115.378V42.926H116.808V47.568C116.808 48.2573 116.904 48.8367 117.094 49.306C117.285 49.7607 117.549 50.1273 117.886 50.406C118.238 50.67 118.656 50.8607 119.14 50.978C119.624 51.0953 120.152 51.154 120.724 51.154C121.164 51.154 121.524 51.132 121.802 51.088C122.096 51.0587 122.374 51.0073 122.638 50.934ZM133.449 45.588C133.449 44.8107 133.353 44.0847 133.163 43.41C132.972 42.7207 132.679 42.1267 132.283 41.628C131.901 41.1147 131.41 40.7187 130.809 40.44C130.207 40.1467 129.496 40 128.675 40C127.941 40 127.259 40.132 126.629 40.396C126.013 40.6453 125.477 41.0193 125.023 41.518C124.583 42.002 124.231 42.596 123.967 43.3C123.717 43.9893 123.593 44.774 123.593 45.654C123.593 46.622 123.725 47.458 123.989 48.162C124.267 48.8513 124.649 49.4233 125.133 49.878C125.631 50.3327 126.218 50.67 126.893 50.89C127.582 51.11 128.33 51.22 129.137 51.22C129.987 51.22 130.765 51.1173 131.469 50.912C132.187 50.692 132.84 50.3913 133.427 50.01L133.097 47.678C132.495 48.0153 131.901 48.2867 131.315 48.492C130.743 48.6973 130.156 48.8 129.555 48.8C128.821 48.8 128.22 48.624 127.751 48.272C127.281 47.9053 127.003 47.2967 126.915 46.446H133.383C133.412 46.358 133.427 46.2333 133.427 46.072C133.441 45.9107 133.449 45.7493 133.449 45.588ZM130.281 44.62H126.893C126.951 43.784 127.127 43.168 127.421 42.772C127.729 42.3613 128.117 42.156 128.587 42.156C129.599 42.156 130.163 42.9773 130.281 44.62ZM150.848 51V43.344C150.848 42.288 150.591 41.4667 150.078 40.88C149.565 40.2933 148.802 40 147.79 40C147.115 40 146.507 40.1613 145.964 40.484C145.421 40.8067 144.908 41.21 144.424 41.694C144.219 41.21 143.903 40.8067 143.478 40.484C143.067 40.1613 142.488 40 141.74 40C141.036 40 140.42 40.1613 139.892 40.484C139.379 40.792 138.88 41.1953 138.396 41.694L138.154 40.22H135.228V51H138.55V43.894C138.843 43.6007 139.129 43.3733 139.408 43.212C139.701 43.036 140.002 42.948 140.31 42.948C140.691 42.948 140.963 43.0727 141.124 43.322C141.285 43.5567 141.366 43.8647 141.366 44.246V51H144.688V43.894C144.981 43.6007 145.275 43.3733 145.568 43.212C145.861 43.036 146.155 42.948 146.448 42.948C146.829 42.948 147.101 43.0727 147.262 43.322C147.423 43.5567 147.504 43.8647 147.504 44.246V51H150.848ZM161.486 47.678C161.486 47.1793 161.42 46.754 161.288 46.402C161.156 46.05 160.936 45.742 160.628 45.478C160.32 45.214 159.917 44.9793 159.418 44.774C158.934 44.5687 158.333 44.3707 157.614 44.18C157.233 44.0773 156.925 43.982 156.69 43.894C156.455 43.806 156.272 43.7253 156.14 43.652C156.008 43.564 155.913 43.476 155.854 43.388C155.81 43.3 155.788 43.1973 155.788 43.08C155.788 42.8747 155.876 42.706 156.052 42.574C156.243 42.442 156.536 42.376 156.932 42.376C157.445 42.376 158.017 42.464 158.648 42.64C159.279 42.816 159.887 43.0653 160.474 43.388L160.892 40.858C160.335 40.6087 159.711 40.418 159.022 40.286C158.347 40.1393 157.643 40.066 156.91 40.066C155.575 40.066 154.549 40.374 153.83 40.99C153.126 41.5913 152.774 42.398 152.774 43.41C152.774 43.9233 152.847 44.356 152.994 44.708C153.141 45.06 153.368 45.368 153.676 45.632C153.999 45.896 154.402 46.1233 154.886 46.314C155.37 46.5047 155.949 46.688 156.624 46.864C157.005 46.952 157.313 47.04 157.548 47.128C157.783 47.216 157.966 47.304 158.098 47.392C158.23 47.48 158.318 47.5753 158.362 47.678C158.421 47.7807 158.45 47.898 158.45 48.03C158.45 48.5727 157.995 48.844 157.086 48.844C156.47 48.844 155.795 48.734 155.062 48.514C154.343 48.2793 153.661 47.964 153.016 47.568L152.62 50.098C153.177 50.3913 153.837 50.648 154.6 50.868C155.377 51.0733 156.199 51.176 157.064 51.176C158.501 51.176 159.594 50.8827 160.342 50.296C161.105 49.6947 161.486 48.822 161.486 47.678Z" fill="#0B2B44"/>
</svg>
