<?xml version="1.0" encoding="utf-8"?>
<!-- Generator: Adobe Illustrator 23.1.1, SVG Export Plug-In . SVG Version: 6.00 Build 0)  -->
<svg version="1.1" id="Layer_1" xmlns="http://www.w3.org/2000/svg" xmlns:xlink="http://www.w3.org/1999/xlink" x="0px" y="0px"
	 viewBox="0 0 792 612" style="enable-background:new 0 0 792 612;" xml:space="preserve">
<style type="text/css">
	.st0{opacity:1;}
	.st1{fill:#FFFFFF;}
</style>
<g class="st0">
	<path class="st1" d="M320.8,221.9L69.6,7.6c475.7-39.8,575.1,86.8,605.9,129C815.3,328.8,614,384,614,384s86-62.8,58.6-118.9
		c-7.5-18.5-25-32.2-52.7-40.6C518,205.7,320.8,221.9,320.8,221.9z"/>
	<path class="st1" d="M0,612l244.1-1.6c0,0,32.6-104.1,229.7-177.8c90.2-33.7,138.9-43.2,181.3-117.2c18.2-31.8-3.3-78.6-59.6-78.6
		c0,0,36.3,29-33,50.4c0,0-239.1,67.4-344.1,109.6C45,466.5,0,612,0,612z"/>
	<path class="st1" d="M382,492c0,0,50-31.8,156.3-67.8c0,0,86.7,107,225.5,148.2c0,0,61,11,3.7,30.1C767.4,602.4,541,656.1,382,492z
		"/>
</g>
</svg>
