<svg width="258" height="384" viewBox="0 0 258 384" fill="none"
  xmlns="http://www.w3.org/2000/svg">
  <path d="M27.9091 13.4384C22.8104 13.4384 18.676 17.5649 18.676 22.6537C18.676 27.7426 25.5065 43.2314 27.9091 43.2314C30.3118 43.2314 37.1423 27.7426 37.1423 22.6537C37.1423 17.5649 33.0079 13.4384 27.9091 13.4384ZM27.9091 25.0292C26.0128 25.0292 24.4745 23.4938 24.4745 21.6012C24.4745 19.7086 26.0128 18.1732 27.9091 18.1732C29.8054 18.1732 31.3438 19.7086 31.3438 21.6012C31.3438 23.4938 29.8054 25.0292 27.9091 25.0292Z" fill="#578220"/>
  <path d="M233.48 340.653C228.382 340.653 224.247 344.779 224.247 349.868C224.247 354.957 231.078 370.446 233.48 370.446C235.883 370.446 242.714 354.957 242.714 349.868C242.714 344.779 238.579 340.653 233.48 340.653ZM233.48 352.244C231.584 352.244 230.046 350.708 230.046 348.816C230.046 346.923 231.584 345.388 233.48 345.388C235.377 345.388 236.915 346.923 236.915 348.816C236.915 350.708 235.377 352.244 233.48 352.244Z" fill="#B35900"/>
  <path d="M38.2775 44.7603C72.2981 42.3366 245.003 32.265 245.003 77.653C245.003 127.998 26.2064 99.972 24.4745 161.393C22.7427 222.813 241.024 163.778 242.717 202.538C244.41 241.299 66.3608 219.833 67.5541 269.923C68.7506 320.014 203.778 278.273 204.975 312.859C206.171 347.444 56.2021 326.632 56.2021 352.244C56.2021 375.544 195.274 371.514 220.387 370.597" stroke="#d2d2d2" stroke-width="1.5" stroke-linejoin="round" stroke-dasharray="6 6"/>
</svg>
