<?xml version="1.0" encoding="UTF-8"?>
<svg width="285px" height="205px" viewBox="0 0 285 205" version="1.1" xmlns="http://www.w3.org/2000/svg" xmlns:xlink="http://www.w3.org/1999/xlink">
    <title>Group</title>
    <g id="Page-1" stroke="none" stroke-width="1" fill="none" fill-rule="evenodd">
        <g id="Group" transform="translate(0.924242, 0.000000)" fill="#0E3757">
            <path d="M57.5757576,0 L100.221591,77.309322 L90.6377576,77.309 L105.013258,103.368644 L95.9087576,103.368 L110.284091,129.427966 L100.700758,129.427 L115.075758,155.487288 L63.0677576,155.487 L63.0685207,205 L50.085626,205 L50.0847576,155.487 L0.0757575758,155.487288 L14.4507576,129.427 L4.86742424,129.427966 L19.2417576,103.368 L10.1382576,103.368644 L24.5127576,77.309 L14.9299242,77.309322 L57.5757576,0 Z" id="Combined-Shape"></path>
            <path d="M139.575758,31 L176.075758,96.25 L167.539758,96.25 L180.075758,118.87 L171.979758,118.87 L184.075758,140.62 L175.584758,140.619 L188.075758,163.24 L144.075758,163.24 L144.075758,205 L133.075758,205 L133.075758,163.24 L90.0757576,163.24 L102.566758,140.619 L94.0757576,140.62 L106.171758,118.87 L99.0757576,118.87 L111.611758,96.25 L103.075758,96.25 L139.575758,31 Z" id="Combined-Shape-Copy"></path>
            <path d="M236.075758,15 L271.075758,87.0091324 L263.630758,87.009 L275.075758,110.43379 L267.134758,110.433 L279.075758,134.726027 L271.093758,134.726 L283.075758,159.018265 L241.075758,159.018 L241.075758,205 L230.075758,205 L230.075758,159.018 L188.075758,159.018265 L200.057758,134.726 L192.075758,134.726027 L204.016758,110.433 L197.075758,110.43379 L208.520758,87.009 L201.075758,87.0091324 L236.075758,15 Z" id="Combined-Shape-Copy-2"></path>
        </g>
    </g>
</svg>