<svg width="300" height="173" viewBox="0 0 300 173" fill="none"
  xmlns="http://www.w3.org/2000/svg">
  <rect x="0.5" y="0.5" width="299" height="172" rx="15.5" fill="white" stroke="#DBDBDB"/>
  <rect x="16" y="16" width="178" height="24" rx="7" fill="#F0EEEE"/>
  <rect x="47" y="58" width="235" height="18" rx="7" fill="#F0EEEE"/>
  <path d="M16.5859 64.375H37.2891C37.6113 64.375 37.875 64.6387 37.875 64.9609V77.6562C37.875 78.9502 36.8252 80 35.5312 80H18.3438C17.0498 80 16 78.9502 16 77.6562V64.9609C16 64.6387 16.2637 64.375 16.5859 64.375ZM37.875 62.2266V60.4688C37.875 59.1748 36.8252 58.125 35.5312 58.125H33.1875V55.5859C33.1875 55.2637 32.9238 55 32.6016 55H30.6484C30.3262 55 30.0625 55.2637 30.0625 55.5859V58.125H23.8125V55.5859C23.8125 55.2637 23.5488 55 23.2266 55H21.2734C20.9512 55 20.6875 55.2637 20.6875 55.5859V58.125H18.3438C17.0498 58.125 16 59.1748 16 60.4688V62.2266C16 62.5488 16.2637 62.8125 16.5859 62.8125H37.2891C37.6113 62.8125 37.875 62.5488 37.875 62.2266Z" fill="#b2b2b2"/>
  <rect x="47" y="95" width="201" height="18" rx="7" fill="#F0EEEE"/>
  <path d="M26.4115 117.496C19.3169 107.21 18 106.155 18 102.375C18 97.1973 22.1973 93 27.375 93C32.5527 93 36.75 97.1973 36.75 102.375C36.75 106.155 35.4331 107.21 28.3385 117.496C27.8729 118.168 26.8771 118.168 26.4115 117.496ZM27.375 106.281C29.5324 106.281 31.2812 104.532 31.2812 102.375C31.2812 100.218 29.5324 98.4688 27.375 98.4688C25.2176 98.4688 23.4688 100.218 23.4688 102.375C23.4688 104.532 25.2176 106.281 27.375 106.281Z" fill="#b2b2b2"/>
  <rect x="16" y="135" width="61" height="18" rx="9" fill="#F0EEEE"/>
  <rect x="89" y="135" width="78" height="18" rx="9" fill="#F0EEEE"/>
  <rect x="179" y="135" width="61" height="18" rx="9" fill="#F0EEEE"/>
  <rect x="252" y="135" width="38" height="18" rx="9" fill="#F0EEEE"/>
  <circle cx="250" cy="27" r="17.5" fill="#d2d2d2" stroke="white"/>
  <g clip-path="url(#clip0_1_11)">
    <path d="M250 28.125C252.795 28.125 255.062 25.8574 255.062 23.0625C255.062 20.2676 252.795 18 250 18C247.205 18 244.938 20.2676 244.938 23.0625C244.938 25.8574 247.205 28.125 250 28.125ZM254.5 29.25H252.563C251.782 29.6086 250.914 29.8125 250 29.8125C249.086 29.8125 248.221 29.6086 247.437 29.25H245.5C243.014 29.25 241 31.2645 241 33.75V34.3125C241 35.2441 241.756 36 242.688 36H257.312C258.244 36 259 35.2441 259 34.3125V33.75C259 31.2645 256.986 29.25 254.5 29.25Z" fill="white"/>
  </g>
  <circle cx="272" cy="27" r="17.5" fill="#b2b2b2" stroke="white"/>
  <g clip-path="url(#clip1_1_11)">
    <path d="M272 28.125C274.795 28.125 277.062 25.8574 277.062 23.0625C277.062 20.2676 274.795 18 272 18C269.205 18 266.938 20.2676 266.938 23.0625C266.938 25.8574 269.205 28.125 272 28.125ZM276.5 29.25H274.563C273.782 29.6086 272.914 29.8125 272 29.8125C271.086 29.8125 270.221 29.6086 269.437 29.25H267.5C265.014 29.25 263 31.2645 263 33.75V34.3125C263 35.2441 263.756 36 264.688 36H279.312C280.244 36 281 35.2441 281 34.3125V33.75C281 31.2645 278.986 29.25 276.5 29.25Z" fill="white"/>
  </g>
  <rect x="0.5" y="0.5" width="299" height="172" rx="15.5" stroke="#DBDBDB"/>
  <defs>
    <clipPath id="clip0_1_11">
      <rect width="18" height="18" fill="white" transform="translate(241 18)"/>
    </clipPath>
    <clipPath id="clip1_1_11">
      <rect width="18" height="18" fill="white" transform="translate(263 18)"/>
    </clipPath>
  </defs>
</svg>
