<svg width="300" height="173" viewBox="0 0 300 173" fill="none" xmlns="http://www.w3.org/2000/svg">
<rect x="0.5" y="0.5" width="299" height="172" rx="15.5" fill="white"/>
<path d="M16.5859 64.375H37.2891C37.6113 64.375 37.875 64.6387 37.875 64.9609V77.6562C37.875 78.9502 36.8252 80 35.5312 80H18.3438C17.0498 80 16 78.9502 16 77.6562V64.9609C16 64.6387 16.2637 64.375 16.5859 64.375ZM37.875 62.2266V60.4688C37.875 59.1748 36.8252 58.125 35.5312 58.125H33.1875V55.5859C33.1875 55.2637 32.9238 55 32.6016 55H30.6484C30.3262 55 30.0625 55.2637 30.0625 55.5859V58.125H23.8125V55.5859C23.8125 55.2637 23.5488 55 23.2266 55H21.2734C20.9512 55 20.6875 55.2637 20.6875 55.5859V58.125H18.3438C17.0498 58.125 16 59.1748 16 60.4688V62.2266C16 62.5488 16.2637 62.8125 16.5859 62.8125H37.2891C37.6113 62.8125 37.875 62.5488 37.875 62.2266Z" fill="#F0EEEE"/>
<path d="M26.4115 117.496C19.3169 107.21 18 106.155 18 102.375C18 97.1973 22.1973 93 27.375 93C32.5527 93 36.75 97.1973 36.75 102.375C36.75 106.155 35.4331 107.21 28.3385 117.496C27.8729 118.168 26.8771 118.168 26.4115 117.496ZM27.375 106.281C29.5324 106.281 31.2812 104.532 31.2812 102.375C31.2812 100.218 29.5324 98.4688 27.375 98.4688C25.2176 98.4688 23.4688 100.218 23.4688 102.375C23.4688 104.532 25.2176 106.281 27.375 106.281Z" fill="#F0EEEE"/>
<rect x="146" y="135" width="61" height="18" rx="9" fill="#F0EEEE"/>
<rect x="217" y="135" width="61" height="18" rx="9" fill="#F0EEEE"/>
<rect x="101" y="135" width="38" height="18" rx="9" fill="#F0EEEE"/>
<rect x="16" y="135" width="78" height="18" rx="9" fill="#F0EEEE"/>
<circle cx="230" cy="29" r="17.5" fill="#D9D9D9" stroke="white"/>
<g clip-path="url(#clip0_1_84)">
<path d="M230 30.125C232.795 30.125 235.062 27.8574 235.062 25.0625C235.062 22.2676 232.795 20 230 20C227.205 20 224.938 22.2676 224.938 25.0625C224.938 27.8574 227.205 30.125 230 30.125ZM234.5 31.25H232.563C231.782 31.6086 230.914 31.8125 230 31.8125C229.086 31.8125 228.221 31.6086 227.437 31.25H225.5C223.014 31.25 221 33.2645 221 35.75V36.3125C221 37.2441 221.756 38 222.688 38H237.312C238.244 38 239 37.2441 239 36.3125V35.75C239 33.2645 236.986 31.25 234.5 31.25Z" fill="white"/>
</g>
<circle cx="253" cy="29" r="17.5" fill="#D9D9D9" stroke="white"/>
<g clip-path="url(#clip1_1_84)">
<path d="M253 30.125C255.795 30.125 258.062 27.8574 258.062 25.0625C258.062 22.2676 255.795 20 253 20C250.205 20 247.938 22.2676 247.938 25.0625C247.938 27.8574 250.205 30.125 253 30.125ZM257.5 31.25H255.563C254.782 31.6086 253.914 31.8125 253 31.8125C252.086 31.8125 251.221 31.6086 250.437 31.25H248.5C246.014 31.25 244 33.2645 244 35.75V36.3125C244 37.2441 244.756 38 245.688 38H260.312C261.244 38 262 37.2441 262 36.3125V35.75C262 33.2645 259.986 31.25 257.5 31.25Z" fill="white"/>
</g>
<circle cx="273" cy="29" r="17.5" fill="#D9D9D9" stroke="white"/>
<g clip-path="url(#clip2_1_84)">
<path d="M273 30.125C275.795 30.125 278.062 27.8574 278.062 25.0625C278.062 22.2676 275.795 20 273 20C270.205 20 267.938 22.2676 267.938 25.0625C267.938 27.8574 270.205 30.125 273 30.125ZM277.5 31.25H275.563C274.782 31.6086 273.914 31.8125 273 31.8125C272.086 31.8125 271.221 31.6086 270.437 31.25H268.5C266.014 31.25 264 33.2645 264 35.75V36.3125C264 37.2441 264.756 38 265.688 38H280.312C281.244 38 282 37.2441 282 36.3125V35.75C282 33.2645 279.986 31.25 277.5 31.25Z" fill="white"/>
</g>
<path d="M41.328 22.44H37.272L34.896 32.808L32.208 22.44H28.08L25.392 32.808L22.896 22.272L18.456 22.968L22.824 39H26.952L29.808 28.32L32.664 39H36.816L41.328 22.44ZM51.7599 33.096C51.7599 32.248 51.6559 31.456 51.4479 30.72C51.2399 29.968 50.9199 29.32 50.4879 28.776C50.0719 28.216 49.5359 27.784 48.8799 27.48C48.2239 27.16 47.4479 27 46.5519 27C45.7519 27 45.0079 27.144 44.3199 27.432C43.6479 27.704 43.0639 28.112 42.5679 28.656C42.0879 29.184 41.7039 29.832 41.4159 30.6C41.1439 31.352 41.0079 32.208 41.0079 33.168C41.0079 34.224 41.1519 35.136 41.4399 35.904C41.7439 36.656 42.1599 37.28 42.6879 37.776C43.2319 38.272 43.8719 38.64 44.6079 38.88C45.3599 39.12 46.1759 39.24 47.0559 39.24C47.9839 39.24 48.8319 39.128 49.5999 38.904C50.3839 38.664 51.0959 38.336 51.7359 37.92L51.3759 35.376C50.7199 35.744 50.0719 36.04 49.4319 36.264C48.8079 36.488 48.1679 36.6 47.5119 36.6C46.7119 36.6 46.0559 36.408 45.5439 36.024C45.0319 35.624 44.7279 34.96 44.6319 34.032H51.6879C51.7199 33.936 51.7359 33.8 51.7359 33.624C51.7519 33.448 51.7599 33.272 51.7599 33.096ZM48.3039 32.04H44.6079C44.6719 31.128 44.8639 30.456 45.1839 30.024C45.5199 29.576 45.9439 29.352 46.4559 29.352C47.5599 29.352 48.1759 30.248 48.3039 32.04ZM62.8931 35.376C62.8931 34.832 62.8211 34.368 62.6771 33.984C62.5331 33.6 62.2931 33.264 61.9571 32.976C61.6211 32.688 61.1811 32.432 60.6371 32.208C60.1091 31.984 59.4531 31.768 58.6691 31.56C58.2531 31.448 57.9171 31.344 57.6611 31.248C57.4051 31.152 57.2051 31.064 57.0611 30.984C56.9171 30.888 56.8131 30.792 56.7491 30.696C56.7011 30.6 56.6771 30.488 56.6771 30.36C56.6771 30.136 56.7731 29.952 56.9651 29.808C57.1731 29.664 57.4931 29.592 57.9251 29.592C58.4851 29.592 59.1091 29.688 59.7971 29.88C60.4851 30.072 61.1491 30.344 61.7891 30.696L62.2451 27.936C61.6371 27.664 60.9571 27.456 60.2051 27.312C59.4691 27.152 58.7011 27.072 57.9011 27.072C56.4451 27.072 55.3251 27.408 54.5411 28.08C53.7731 28.736 53.3891 29.616 53.3891 30.72C53.3891 31.28 53.4691 31.752 53.6291 32.136C53.7891 32.52 54.0371 32.856 54.3731 33.144C54.7251 33.432 55.1651 33.68 55.6931 33.888C56.2211 34.096 56.8531 34.296 57.5891 34.488C58.0051 34.584 58.3411 34.68 58.5971 34.776C58.8531 34.872 59.0531 34.968 59.1971 35.064C59.3411 35.16 59.4371 35.264 59.4851 35.376C59.5491 35.488 59.5811 35.616 59.5811 35.76C59.5811 36.352 59.0851 36.648 58.0931 36.648C57.4211 36.648 56.6851 36.528 55.8851 36.288C55.1011 36.032 54.3571 35.688 53.6531 35.256L53.2211 38.016C53.8291 38.336 54.5491 38.616 55.3811 38.856C56.2291 39.08 57.1251 39.192 58.0691 39.192C59.6371 39.192 60.8291 38.872 61.6451 38.232C62.4771 37.576 62.8931 36.624 62.8931 35.376ZM71.7482 38.928L71.2922 35.952C71.0042 36.032 70.7162 36.072 70.4282 36.072C69.4682 36.072 68.9882 35.608 68.9882 34.68V30.192H71.6762L71.2202 27.24H68.9882V23.184L65.3882 23.736V27.24H63.8282V30.192H65.3882V35.256C65.3882 36.008 65.4922 36.64 65.7002 37.152C65.9082 37.648 66.1962 38.048 66.5642 38.352C66.9482 38.64 67.4042 38.848 67.9322 38.976C68.4602 39.104 69.0362 39.168 69.6602 39.168C70.1402 39.168 70.5322 39.144 70.8362 39.096C71.1562 39.064 71.4602 39.008 71.7482 38.928ZM90.8826 38.064L90.3546 34.704C89.7306 35.056 89.1146 35.336 88.5066 35.544C87.8986 35.752 87.2586 35.856 86.5866 35.856C85.9626 35.856 85.3866 35.744 84.8586 35.52C84.3306 35.296 83.8666 34.968 83.4666 34.536C83.0826 34.104 82.7786 33.568 82.5546 32.928C82.3466 32.288 82.2426 31.552 82.2426 30.72C82.2426 29.088 82.6186 27.824 83.3706 26.928C84.1226 26.032 85.1226 25.584 86.3706 25.584C87.0906 25.584 87.7546 25.712 88.3626 25.968C88.9866 26.224 89.5546 26.544 90.0666 26.928L90.6426 23.232C90.0346 22.896 89.3546 22.632 88.6026 22.44C87.8506 22.248 87.0026 22.152 86.0586 22.152C84.8746 22.152 83.7946 22.36 82.8186 22.776C81.8586 23.192 81.0266 23.776 80.3226 24.528C79.6346 25.28 79.0986 26.184 78.7146 27.24C78.3306 28.296 78.1386 29.464 78.1386 30.744C78.1386 32.04 78.3226 33.216 78.6906 34.272C79.0586 35.328 79.5866 36.232 80.2746 36.984C80.9626 37.72 81.8026 38.288 82.7946 38.688C83.8026 39.088 84.9306 39.288 86.1786 39.288C87.0906 39.288 87.9306 39.176 88.6986 38.952C89.4826 38.728 90.2106 38.432 90.8826 38.064ZM103.312 33.12C103.312 32.176 103.168 31.328 102.88 30.576C102.592 29.824 102.192 29.184 101.68 28.656C101.184 28.128 100.592 27.72 99.9039 27.432C99.2159 27.144 98.4639 27 97.6479 27C96.8319 27 96.0799 27.144 95.3919 27.432C94.7039 27.72 94.1039 28.128 93.5919 28.656C93.0959 29.184 92.7039 29.832 92.4159 30.6C92.1439 31.352 92.0079 32.2 92.0079 33.144C92.0079 34.088 92.1439 34.936 92.4159 35.688C92.7039 36.44 93.0959 37.08 93.5919 37.608C94.1039 38.136 94.6959 38.544 95.3679 38.832C96.0559 39.104 96.8079 39.24 97.6239 39.24C98.4399 39.24 99.1919 39.096 99.8799 38.808C100.584 38.52 101.184 38.112 101.68 37.584C102.192 37.056 102.592 36.416 102.88 35.664C103.168 34.912 103.312 34.064 103.312 33.12ZM99.8079 33.144C99.8079 34.104 99.6239 34.872 99.2559 35.448C98.8879 36.024 98.3519 36.312 97.6479 36.312C96.9599 36.312 96.4319 36.024 96.0639 35.448C95.6959 34.856 95.5119 34.08 95.5119 33.12C95.5119 32.16 95.6879 31.4 96.0399 30.84C96.4079 30.264 96.9439 29.976 97.6479 29.976C98.3519 29.976 98.8879 30.264 99.2559 30.84C99.6239 31.416 99.8079 32.184 99.8079 33.144ZM115.008 39V31.128C115.008 29.624 114.608 28.568 113.808 27.96C113.008 27.352 111.792 27.048 110.16 27.048C109.2 27.048 108.328 27.136 107.544 27.312C106.776 27.472 106.056 27.688 105.384 27.96L105.816 30.696C106.44 30.424 107.056 30.208 107.664 30.048C108.288 29.888 108.936 29.808 109.608 29.808C110.792 29.808 111.384 30.304 111.384 31.296V31.512C109.08 31.72 107.384 32.176 106.296 32.88C105.208 33.568 104.664 34.6 104.664 35.976C104.664 37.048 104.96 37.864 105.552 38.424C106.144 38.968 106.912 39.24 107.856 39.24C108.672 39.24 109.368 39.088 109.944 38.784C110.536 38.464 111.072 38.048 111.552 37.536L111.792 39H115.008ZM111.384 35.76C110.712 36.352 110.04 36.648 109.368 36.648C109.032 36.648 108.76 36.552 108.552 36.36C108.344 36.152 108.24 35.864 108.24 35.496C108.24 35.24 108.288 35 108.384 34.776C108.48 34.536 108.648 34.32 108.888 34.128C109.128 33.936 109.448 33.768 109.848 33.624C110.248 33.48 110.76 33.36 111.384 33.264V35.76ZM126.596 35.376C126.596 34.832 126.524 34.368 126.38 33.984C126.236 33.6 125.996 33.264 125.66 32.976C125.324 32.688 124.884 32.432 124.34 32.208C123.812 31.984 123.156 31.768 122.372 31.56C121.956 31.448 121.62 31.344 121.364 31.248C121.108 31.152 120.908 31.064 120.764 30.984C120.62 30.888 120.516 30.792 120.452 30.696C120.404 30.6 120.38 30.488 120.38 30.36C120.38 30.136 120.476 29.952 120.668 29.808C120.876 29.664 121.196 29.592 121.628 29.592C122.188 29.592 122.812 29.688 123.5 29.88C124.188 30.072 124.852 30.344 125.492 30.696L125.948 27.936C125.34 27.664 124.66 27.456 123.908 27.312C123.172 27.152 122.404 27.072 121.604 27.072C120.148 27.072 119.028 27.408 118.244 28.08C117.476 28.736 117.092 29.616 117.092 30.72C117.092 31.28 117.172 31.752 117.332 32.136C117.492 32.52 117.74 32.856 118.076 33.144C118.428 33.432 118.868 33.68 119.396 33.888C119.924 34.096 120.556 34.296 121.292 34.488C121.708 34.584 122.044 34.68 122.3 34.776C122.556 34.872 122.756 34.968 122.9 35.064C123.044 35.16 123.14 35.264 123.188 35.376C123.252 35.488 123.284 35.616 123.284 35.76C123.284 36.352 122.788 36.648 121.796 36.648C121.124 36.648 120.388 36.528 119.588 36.288C118.804 36.032 118.06 35.688 117.356 35.256L116.924 38.016C117.532 38.336 118.252 38.616 119.084 38.856C119.932 39.08 120.828 39.192 121.772 39.192C123.34 39.192 124.532 38.872 125.348 38.232C126.18 37.576 126.596 36.624 126.596 35.376ZM135.451 38.928L134.995 35.952C134.707 36.032 134.419 36.072 134.131 36.072C133.171 36.072 132.691 35.608 132.691 34.68V30.192H135.379L134.923 27.24H132.691V23.184L129.091 23.736V27.24H127.531V30.192H129.091V35.256C129.091 36.008 129.195 36.64 129.403 37.152C129.611 37.648 129.899 38.048 130.267 38.352C130.651 38.64 131.107 38.848 131.635 38.976C132.163 39.104 132.739 39.168 133.363 39.168C133.843 39.168 134.235 39.144 134.539 39.096C134.859 39.064 135.163 39.008 135.451 38.928ZM155.21 25.92L154.634 22.44H141.53V25.92H146.114V39H150.242V25.92H155.21ZM162.137 30.696L161.537 27C160.673 27.064 159.969 27.344 159.425 27.84C158.897 28.32 158.457 28.896 158.105 29.568L157.721 27.24H154.553V39H158.177V32.472C158.625 31.992 159.177 31.592 159.833 31.272C160.489 30.952 161.257 30.76 162.137 30.696ZM172.946 39V31.128C172.946 29.624 172.546 28.568 171.746 27.96C170.946 27.352 169.73 27.048 168.098 27.048C167.138 27.048 166.266 27.136 165.482 27.312C164.714 27.472 163.994 27.688 163.322 27.96L163.754 30.696C164.378 30.424 164.994 30.208 165.602 30.048C166.226 29.888 166.874 29.808 167.546 29.808C168.73 29.808 169.322 30.304 169.322 31.296V31.512C167.018 31.72 165.322 32.176 164.234 32.88C163.146 33.568 162.602 34.6 162.602 35.976C162.602 37.048 162.898 37.864 163.49 38.424C164.082 38.968 164.85 39.24 165.794 39.24C166.61 39.24 167.306 39.088 167.882 38.784C168.474 38.464 169.01 38.048 169.49 37.536L169.73 39H172.946ZM169.322 35.76C168.65 36.352 167.978 36.648 167.306 36.648C166.97 36.648 166.698 36.552 166.49 36.36C166.282 36.152 166.178 35.864 166.178 35.496C166.178 35.24 166.226 35 166.322 34.776C166.418 34.536 166.586 34.32 166.826 34.128C167.066 33.936 167.386 33.768 167.786 33.624C168.186 33.48 168.698 33.36 169.322 33.264V35.76ZM179.302 23.76C179.302 23.152 179.102 22.672 178.702 22.32C178.318 21.968 177.83 21.792 177.238 21.792C176.662 21.792 176.174 21.968 175.774 22.32C175.374 22.672 175.174 23.152 175.174 23.76C175.174 24.352 175.374 24.824 175.774 25.176C176.174 25.528 176.662 25.704 177.238 25.704C177.83 25.704 178.318 25.528 178.702 25.176C179.102 24.824 179.302 24.352 179.302 23.76ZM179.062 39V27.24H175.414V39H179.062ZM185.343 39V21.672L181.695 22.248V39H185.343Z" fill="#0B2B44"/>
<path d="M53.416 72.312V63.96H52.312V72.296C52.312 72.9253 52.1573 73.3893 51.848 73.688C51.5493 73.9867 51.128 74.136 50.584 74.136C50.3707 74.136 50.168 74.1253 49.976 74.104C49.784 74.072 49.6027 74.0293 49.432 73.976L49.592 75C49.7307 75.0213 49.88 75.0427 50.04 75.064C50.2107 75.0853 50.3867 75.096 50.568 75.096C51.4107 75.096 52.0933 74.872 52.616 74.424C53.1493 73.9653 53.416 73.2613 53.416 72.312ZM61.9641 75V67.432H60.9081V72.904C60.4921 73.3093 60.0815 73.6293 59.6761 73.864C59.2708 74.088 58.8655 74.2 58.4601 74.2C57.9801 74.2 57.6228 74.0667 57.3881 73.8C57.1641 73.5227 57.0521 73.1387 57.0521 72.648V67.432H55.9961V72.84C55.9961 73.5653 56.1775 74.136 56.5401 74.552C56.9135 74.9573 57.4841 75.16 58.2521 75.16C58.7641 75.16 59.2388 75.0427 59.6761 74.808C60.1241 74.5627 60.5561 74.2533 60.9721 73.88L61.1481 75H61.9641ZM70.4031 75V69.592C70.4031 68.856 70.2165 68.2853 69.8431 67.88C69.4698 67.4747 68.9045 67.272 68.1471 67.272C67.6351 67.272 67.1551 67.3947 66.7071 67.64C66.2698 67.8747 65.8431 68.1787 65.4271 68.552L65.2511 67.432H64.4351V75H65.4911V69.528C65.9071 69.1227 66.3178 68.8027 66.7231 68.568C67.1285 68.3333 67.5338 68.216 67.9391 68.216C68.4191 68.216 68.7711 68.3547 68.9951 68.632C69.2298 68.9093 69.3471 69.2933 69.3471 69.784V75H70.4031ZM78.6661 71.064C78.6661 70.5413 78.6021 70.0507 78.4741 69.592C78.3568 69.1333 78.1701 68.7333 77.9141 68.392C77.6581 68.04 77.3381 67.768 76.9541 67.576C76.5701 67.3733 76.1221 67.272 75.6101 67.272C75.1408 67.272 74.7088 67.3627 74.3141 67.544C73.9195 67.7253 73.5728 67.9867 73.2741 68.328C72.9861 68.6693 72.7568 69.0853 72.5861 69.576C72.4261 70.056 72.3461 70.6 72.3461 71.208C72.3461 71.8587 72.4315 72.4347 72.6021 72.936C72.7728 73.4267 73.0075 73.8373 73.3061 74.168C73.6048 74.4987 73.9621 74.7493 74.3781 74.92C74.7941 75.08 75.2528 75.16 75.7541 75.16C76.3408 75.16 76.8741 75.064 77.3541 74.872C77.8448 74.6693 78.2768 74.408 78.6501 74.088L78.4901 73.128C78.0955 73.4693 77.6795 73.7413 77.2421 73.944C76.8048 74.1467 76.3301 74.248 75.8181 74.248C75.0501 74.248 74.4581 73.992 74.0421 73.48C73.6368 72.9573 73.4235 72.2267 73.4021 71.288H78.6661V71.064ZM77.5781 70.456H73.4501C73.5568 69.72 73.7915 69.1493 74.1541 68.744C74.5275 68.328 75.0128 68.12 75.6101 68.12C76.2181 68.12 76.6821 68.3387 77.0021 68.776C77.3328 69.2133 77.5248 69.7733 77.5781 70.456ZM87.0309 75V64.136H86.1669L83.5109 65.352L83.6549 66.216L85.9749 65.288V75H87.0309ZM93.7264 68.984C93.2357 68.8027 92.825 68.632 92.4944 68.472C92.1637 68.312 91.897 68.1467 91.6944 67.976C91.4917 67.7947 91.3477 67.6027 91.2624 67.4C91.177 67.1867 91.1344 66.9467 91.1344 66.68C91.1344 66.4453 91.1824 66.2213 91.2784 66.008C91.3744 65.7947 91.513 65.608 91.6944 65.448C91.8757 65.2773 92.105 65.144 92.3824 65.048C92.6597 64.9413 92.9797 64.888 93.3424 64.888C94.025 64.888 94.5637 65.0587 94.9584 65.4C95.353 65.7307 95.5504 66.1573 95.5504 66.68C95.5504 67.1493 95.385 67.5813 95.0544 67.976C94.7344 68.3707 94.2917 68.7067 93.7264 68.984ZM92.9104 69.656C93.4757 69.8587 93.9504 70.0507 94.3344 70.232C94.7184 70.4133 95.0224 70.6 95.2464 70.792C95.481 70.984 95.6464 71.1973 95.7424 71.432C95.8384 71.6667 95.8864 71.9333 95.8864 72.232C95.8864 72.552 95.817 72.84 95.6784 73.096C95.5504 73.3413 95.369 73.5547 95.1344 73.736C94.9104 73.9173 94.6437 74.056 94.3344 74.152C94.025 74.248 93.6944 74.296 93.3424 74.296C92.5744 74.296 91.945 74.1093 91.4544 73.736C90.9637 73.3627 90.7184 72.856 90.7184 72.216C90.7184 71.6613 90.9157 71.1707 91.3104 70.744C91.705 70.3067 92.2384 69.944 92.9104 69.656ZM91.9664 69.288C91.2624 69.6293 90.697 70.0453 90.2704 70.536C89.8544 71.0267 89.6464 71.608 89.6464 72.28C89.6464 72.6853 89.7264 73.0693 89.8864 73.432C90.057 73.784 90.297 74.0933 90.6064 74.36C90.9264 74.616 91.3104 74.824 91.7584 74.984C92.217 75.1333 92.7344 75.208 93.3104 75.208C93.8437 75.208 94.3344 75.1333 94.7824 74.984C95.2304 74.8347 95.6144 74.632 95.9344 74.376C96.2544 74.1093 96.505 73.7947 96.6864 73.432C96.8677 73.0693 96.9584 72.6747 96.9584 72.248C96.9584 71.5013 96.7557 70.9093 96.3504 70.472C95.945 70.024 95.385 69.6453 94.6704 69.336C94.937 69.1867 95.1877 69.0213 95.4224 68.84C95.657 68.648 95.8597 68.4453 96.0304 68.232C96.2117 68.008 96.3504 67.7627 96.4464 67.496C96.553 67.2293 96.6064 66.9413 96.6064 66.632C96.6064 66.2587 96.5264 65.912 96.3664 65.592C96.217 65.272 96.0037 64.9947 95.7264 64.76C95.449 64.5147 95.1077 64.3227 94.7024 64.184C94.3077 64.0453 93.865 63.976 93.3744 63.976C92.8837 63.976 92.4357 64.0453 92.0304 64.184C91.625 64.3227 91.273 64.5147 90.9744 64.76C90.6864 65.0053 90.4624 65.2933 90.3024 65.624C90.1424 65.9547 90.0624 66.312 90.0624 66.696C90.0624 67.3573 90.2384 67.8907 90.5904 68.296C90.9424 68.6907 91.401 69.0213 91.9664 69.288ZM102.723 71V69.944H98.851V71H102.723ZM110.882 75L110.738 74.056H105.474L108.818 70.568C109.148 70.216 109.431 69.8907 109.666 69.592C109.911 69.2933 110.108 69.0053 110.258 68.728C110.407 68.44 110.519 68.152 110.594 67.864C110.668 67.5653 110.706 67.2507 110.706 66.92C110.706 66.024 110.423 65.3093 109.858 64.776C109.303 64.2427 108.524 63.976 107.522 63.976C106.85 63.976 106.252 64.0933 105.73 64.328C105.218 64.552 104.759 64.8347 104.354 65.176L104.514 66.232C104.94 65.8587 105.394 65.5493 105.874 65.304C106.364 65.0587 106.892 64.936 107.458 64.936C108.13 64.936 108.652 65.1173 109.026 65.48C109.41 65.832 109.602 66.3333 109.602 66.984C109.602 67.24 109.575 67.48 109.522 67.704C109.468 67.928 109.378 68.1573 109.25 68.392C109.132 68.6267 108.972 68.872 108.77 69.128C108.578 69.384 108.338 69.6667 108.05 69.976L104.066 74.216V75H110.882ZM120.21 72.44V71.56H118.434V64.136H117.138L111.906 71.688V72.44H117.442V75H118.434V72.44H120.21ZM117.442 71.56H113.074L117.442 65.304V71.56Z" fill="#4A555A"/>
<path d="M58.792 110.088V105.208H54.888L55.048 106.2H57.704V109.512C57.3307 109.736 56.9467 109.907 56.552 110.024C56.1573 110.141 55.6987 110.2 55.176 110.2C54.5253 110.2 53.9493 110.088 53.448 109.864C52.9467 109.64 52.52 109.325 52.168 108.92C51.8267 108.504 51.5653 108.008 51.384 107.432C51.2027 106.845 51.112 106.195 51.112 105.48C51.112 104.765 51.2027 104.12 51.384 103.544C51.5653 102.957 51.8213 102.456 52.152 102.04C52.4933 101.624 52.904 101.304 53.384 101.08C53.8747 100.856 54.4293 100.744 55.048 100.744C55.688 100.744 56.2587 100.845 56.76 101.048C57.272 101.251 57.7307 101.517 58.136 101.848L58.328 100.712C57.9013 100.403 57.4213 100.168 56.888 100.008C56.3547 99.8373 55.7467 99.752 55.064 99.752C54.296 99.752 53.5973 99.896 52.968 100.184C52.3387 100.461 51.8 100.851 51.352 101.352C50.9147 101.853 50.5733 102.461 50.328 103.176C50.0933 103.88 49.976 104.653 49.976 105.496C49.976 106.339 50.0933 107.112 50.328 107.816C50.5627 108.509 50.8987 109.112 51.336 109.624C51.784 110.125 52.328 110.515 52.968 110.792C53.608 111.069 54.3387 111.208 55.16 111.208C55.8747 111.208 56.5307 111.107 57.128 110.904C57.7253 110.701 58.28 110.429 58.792 110.088ZM67.7094 107.224C67.7094 106.595 67.6187 106.035 67.4374 105.544C67.2667 105.053 67.0267 104.643 66.7174 104.312C66.4187 103.971 66.056 103.715 65.6294 103.544C65.2134 103.363 64.76 103.272 64.2694 103.272C63.7894 103.272 63.3414 103.363 62.9254 103.544C62.52 103.715 62.1627 103.971 61.8534 104.312C61.5547 104.643 61.3147 105.053 61.1334 105.544C60.9627 106.035 60.8774 106.595 60.8774 107.224C60.8774 107.853 60.9627 108.413 61.1334 108.904C61.304 109.384 61.5387 109.795 61.8374 110.136C62.1467 110.467 62.5094 110.723 62.9254 110.904C63.3414 111.075 63.7894 111.16 64.2694 111.16C64.7494 111.16 65.1974 111.075 65.6134 110.904C66.04 110.723 66.408 110.467 66.7174 110.136C67.0267 109.795 67.2667 109.384 67.4374 108.904C67.6187 108.413 67.7094 107.853 67.7094 107.224ZM66.6214 107.224C66.6214 108.12 66.4187 108.851 66.0134 109.416C65.6187 109.981 65.0374 110.264 64.2694 110.264C63.896 110.264 63.5654 110.189 63.2774 110.04C62.9894 109.88 62.744 109.667 62.5414 109.4C62.3494 109.123 62.2 108.803 62.0934 108.44C61.9974 108.067 61.9494 107.661 61.9494 107.224C61.9494 106.776 61.9974 106.365 62.0934 105.992C62.2 105.619 62.3494 105.299 62.5414 105.032C62.744 104.755 62.9894 104.541 63.2774 104.392C63.5654 104.243 63.896 104.168 64.2694 104.168C64.6534 104.168 64.9894 104.248 65.2774 104.408C65.5654 104.557 65.8107 104.771 66.0134 105.048C66.216 105.315 66.3654 105.635 66.4614 106.008C66.568 106.381 66.6214 106.787 66.6214 107.224ZM73.6044 104.264L73.4284 103.272C73.119 103.283 72.831 103.336 72.5644 103.432C72.2977 103.528 72.0524 103.656 71.8284 103.816C71.6044 103.976 71.4017 104.157 71.2204 104.36C71.039 104.563 70.879 104.771 70.7404 104.984L70.5004 103.432H69.7164V111H70.7724V106.248C70.9004 105.992 71.0604 105.752 71.2524 105.528C71.4444 105.293 71.663 105.085 71.9084 104.904C72.1537 104.723 72.4204 104.579 72.7084 104.472C72.9964 104.355 73.295 104.285 73.6044 104.264ZM80.9671 111V99.512L79.9111 99.704V103.704C79.6445 103.587 79.3458 103.496 79.0151 103.432C78.6845 103.357 78.3271 103.32 77.9431 103.32C77.4845 103.32 77.0471 103.405 76.6311 103.576C76.2151 103.747 75.8471 104.003 75.5271 104.344C75.2071 104.685 74.9511 105.112 74.7591 105.624C74.5778 106.136 74.4871 106.739 74.4871 107.432C74.4871 108.072 74.5671 108.627 74.7271 109.096C74.8871 109.555 75.1058 109.939 75.3831 110.248C75.6711 110.557 75.9965 110.787 76.3591 110.936C76.7325 111.085 77.1271 111.16 77.5431 111.16C78.0978 111.16 78.5671 111.037 78.9511 110.792C79.3458 110.536 79.6871 110.237 79.9751 109.896L80.1671 111H80.9671ZM79.9111 108.856C79.5698 109.261 79.2178 109.592 78.8551 109.848C78.4925 110.093 78.0871 110.216 77.6391 110.216C77.0311 110.216 76.5298 109.976 76.1351 109.496C75.7511 109.016 75.5591 108.312 75.5591 107.384C75.5591 106.851 75.6178 106.387 75.7351 105.992C75.8631 105.597 76.0338 105.272 76.2471 105.016C76.4711 104.749 76.7271 104.552 77.0151 104.424C77.3138 104.296 77.6338 104.232 77.9751 104.232C78.3698 104.232 78.7165 104.269 79.0151 104.344C79.3138 104.419 79.6125 104.531 79.9111 104.68V108.856ZM89.8031 107.224C89.8031 106.595 89.7125 106.035 89.5311 105.544C89.3605 105.053 89.1205 104.643 88.8111 104.312C88.5125 103.971 88.1498 103.715 87.7231 103.544C87.3071 103.363 86.8538 103.272 86.3631 103.272C85.8831 103.272 85.4351 103.363 85.0191 103.544C84.6138 103.715 84.2565 103.971 83.9471 104.312C83.6485 104.643 83.4085 105.053 83.2271 105.544C83.0565 106.035 82.9711 106.595 82.9711 107.224C82.9711 107.853 83.0565 108.413 83.2271 108.904C83.3978 109.384 83.6325 109.795 83.9311 110.136C84.2405 110.467 84.6031 110.723 85.0191 110.904C85.4351 111.075 85.8831 111.16 86.3631 111.16C86.8431 111.16 87.2911 111.075 87.7071 110.904C88.1338 110.723 88.5018 110.467 88.8111 110.136C89.1205 109.795 89.3605 109.384 89.5311 108.904C89.7125 108.413 89.8031 107.853 89.8031 107.224ZM88.7151 107.224C88.7151 108.12 88.5125 108.851 88.1071 109.416C87.7125 109.981 87.1311 110.264 86.3631 110.264C85.9898 110.264 85.6591 110.189 85.3711 110.04C85.0831 109.88 84.8378 109.667 84.6351 109.4C84.4431 109.123 84.2938 108.803 84.1871 108.44C84.0911 108.067 84.0431 107.661 84.0431 107.224C84.0431 106.776 84.0911 106.365 84.1871 105.992C84.2938 105.619 84.4431 105.299 84.6351 105.032C84.8378 104.755 85.0831 104.541 85.3711 104.392C85.6591 104.243 85.9898 104.168 86.3631 104.168C86.7471 104.168 87.0831 104.248 87.3711 104.408C87.6591 104.557 87.9045 104.771 88.1071 105.048C88.3098 105.315 88.4591 105.635 88.5551 106.008C88.6618 106.381 88.7151 106.787 88.7151 107.224ZM97.7781 111V105.592C97.7781 104.856 97.5915 104.285 97.2181 103.88C96.8448 103.475 96.2795 103.272 95.5221 103.272C95.0101 103.272 94.5301 103.395 94.0821 103.64C93.6448 103.875 93.2181 104.179 92.8021 104.552L92.6261 103.432H91.8101V111H92.8661V105.528C93.2821 105.123 93.6928 104.803 94.0981 104.568C94.5035 104.333 94.9088 104.216 95.3141 104.216C95.7941 104.216 96.1461 104.355 96.3701 104.632C96.6048 104.909 96.7221 105.293 96.7221 105.784V111H97.7781ZM109.267 103.032C109.267 103.736 109.027 104.269 108.547 104.632C108.077 104.995 107.432 105.176 106.611 105.176H105.139V100.936H106.803C107.603 100.936 108.211 101.117 108.627 101.48C109.053 101.843 109.267 102.36 109.267 103.032ZM107.763 105.976C108.147 105.901 108.499 105.784 108.819 105.624C109.139 105.453 109.411 105.245 109.635 105C109.869 104.744 110.051 104.451 110.179 104.12C110.317 103.779 110.387 103.395 110.387 102.968C110.387 101.997 110.067 101.256 109.427 100.744C108.797 100.221 107.939 99.96 106.851 99.96H104.035V111H105.139V106.12H106.562L110.147 111.112L111.267 110.872L107.763 105.976ZM114.265 100.856C114.265 100.643 114.19 100.461 114.041 100.312C113.902 100.163 113.726 100.088 113.513 100.088C113.299 100.088 113.118 100.163 112.969 100.312C112.819 100.461 112.745 100.643 112.745 100.856C112.745 101.069 112.819 101.251 112.969 101.4C113.118 101.549 113.299 101.624 113.513 101.624C113.726 101.624 113.902 101.549 114.041 101.4C114.19 101.251 114.265 101.069 114.265 100.856ZM114.025 111V103.432H112.985V111H114.025ZM122.415 103.432H121.327L119.151 109.768L116.911 103.336L115.871 103.528L118.623 111.064H119.615L122.415 103.432ZM129.76 107.064C129.76 106.541 129.696 106.051 129.568 105.592C129.451 105.133 129.264 104.733 129.008 104.392C128.752 104.04 128.432 103.768 128.048 103.576C127.664 103.373 127.216 103.272 126.704 103.272C126.235 103.272 125.803 103.363 125.408 103.544C125.013 103.725 124.667 103.987 124.368 104.328C124.08 104.669 123.851 105.085 123.68 105.576C123.52 106.056 123.44 106.6 123.44 107.208C123.44 107.859 123.525 108.435 123.696 108.936C123.867 109.427 124.101 109.837 124.4 110.168C124.699 110.499 125.056 110.749 125.472 110.92C125.888 111.08 126.347 111.16 126.848 111.16C127.435 111.16 127.968 111.064 128.448 110.872C128.939 110.669 129.371 110.408 129.744 110.088L129.584 109.128C129.189 109.469 128.773 109.741 128.336 109.944C127.899 110.147 127.424 110.248 126.912 110.248C126.144 110.248 125.552 109.992 125.136 109.48C124.731 108.957 124.517 108.227 124.496 107.288H129.76V107.064ZM128.672 106.456H124.544C124.651 105.72 124.885 105.149 125.248 104.744C125.621 104.328 126.107 104.12 126.704 104.12C127.312 104.12 127.776 104.339 128.096 104.776C128.427 105.213 128.619 105.773 128.672 106.456ZM135.651 104.264L135.475 103.272C135.166 103.283 134.878 103.336 134.611 103.432C134.345 103.528 134.099 103.656 133.875 103.816C133.651 103.976 133.449 104.157 133.267 104.36C133.086 104.563 132.926 104.771 132.787 104.984L132.547 103.432H131.763V111H132.819V106.248C132.947 105.992 133.107 105.752 133.299 105.528C133.491 105.293 133.71 105.085 133.955 104.904C134.201 104.723 134.467 104.579 134.755 104.472C135.043 104.355 135.342 104.285 135.651 104.264ZM148.489 100.952L148.329 99.96H140.201V100.952H143.785V111H144.873V100.952H148.489ZM152.167 104.264L151.991 103.272C151.682 103.283 151.394 103.336 151.127 103.432C150.86 103.528 150.615 103.656 150.391 103.816C150.167 103.976 149.964 104.157 149.783 104.36C149.602 104.563 149.442 104.771 149.303 104.984L149.063 103.432H148.279V111H149.335V106.248C149.463 105.992 149.623 105.752 149.815 105.528C150.007 105.293 150.226 105.085 150.471 104.904C150.716 104.723 150.983 104.579 151.271 104.472C151.559 104.355 151.858 104.285 152.167 104.264ZM158.922 111V105.608C158.922 104.051 158.074 103.272 156.378 103.272C155.834 103.272 155.338 103.336 154.89 103.464C154.452 103.581 154.01 103.736 153.562 103.928L153.706 104.872C154.122 104.669 154.548 104.509 154.986 104.392C155.423 104.264 155.866 104.2 156.314 104.2C156.794 104.2 157.172 104.317 157.45 104.552C157.738 104.776 157.882 105.144 157.882 105.656V106.152C157.028 106.237 156.292 106.355 155.674 106.504C155.066 106.653 154.564 106.845 154.17 107.08C153.775 107.315 153.482 107.597 153.29 107.928C153.108 108.259 153.018 108.648 153.018 109.096C153.018 109.768 153.226 110.28 153.642 110.632C154.068 110.984 154.612 111.16 155.274 111.16C155.818 111.16 156.308 111.048 156.746 110.824C157.194 110.6 157.594 110.323 157.946 109.992L158.122 111H158.922ZM157.882 109.128C157.508 109.469 157.108 109.747 156.682 109.96C156.255 110.163 155.839 110.264 155.434 110.264C155.028 110.264 154.698 110.163 154.442 109.96C154.196 109.747 154.074 109.437 154.074 109.032C154.074 108.776 154.132 108.541 154.25 108.328C154.367 108.104 154.57 107.907 154.858 107.736C155.146 107.565 155.535 107.416 156.026 107.288C156.516 107.16 157.135 107.059 157.882 106.984V109.128ZM162.718 100.856C162.718 100.643 162.643 100.461 162.494 100.312C162.355 100.163 162.179 100.088 161.966 100.088C161.752 100.088 161.571 100.163 161.422 100.312C161.272 100.461 161.198 100.643 161.198 100.856C161.198 101.069 161.272 101.251 161.422 101.4C161.571 101.549 161.752 101.624 161.966 101.624C162.179 101.624 162.355 101.549 162.494 101.4C162.643 101.251 162.718 101.069 162.718 100.856ZM162.478 111V103.432H161.438V111H162.478ZM166.212 111V99.512L165.172 99.704V111H166.212ZM174.778 111V105.576C174.778 104.851 174.591 104.285 174.218 103.88C173.845 103.475 173.279 103.272 172.522 103.272C172.01 103.272 171.535 103.395 171.098 103.64C170.671 103.875 170.261 104.163 169.866 104.504V99.512L168.81 99.704V111H169.866V105.528C170.282 105.123 170.693 104.803 171.098 104.568C171.503 104.333 171.909 104.216 172.314 104.216C172.794 104.216 173.146 104.355 173.37 104.632C173.605 104.909 173.722 105.293 173.722 105.784V111H174.778ZM183.041 107.064C183.041 106.541 182.977 106.051 182.849 105.592C182.732 105.133 182.545 104.733 182.289 104.392C182.033 104.04 181.713 103.768 181.329 103.576C180.945 103.373 180.497 103.272 179.985 103.272C179.516 103.272 179.084 103.363 178.689 103.544C178.294 103.725 177.948 103.987 177.649 104.328C177.361 104.669 177.132 105.085 176.961 105.576C176.801 106.056 176.721 106.6 176.721 107.208C176.721 107.859 176.806 108.435 176.977 108.936C177.148 109.427 177.382 109.837 177.681 110.168C177.98 110.499 178.337 110.749 178.753 110.92C179.169 111.08 179.628 111.16 180.129 111.16C180.716 111.16 181.249 111.064 181.729 110.872C182.22 110.669 182.652 110.408 183.025 110.088L182.865 109.128C182.47 109.469 182.054 109.741 181.617 109.944C181.18 110.147 180.705 110.248 180.193 110.248C179.425 110.248 178.833 109.992 178.417 109.48C178.012 108.957 177.798 108.227 177.777 107.288H183.041V107.064ZM181.953 106.456H177.825C177.932 105.72 178.166 105.149 178.529 104.744C178.902 104.328 179.388 104.12 179.985 104.12C180.593 104.12 181.057 104.339 181.377 104.776C181.708 105.213 181.9 105.773 181.953 106.456ZM190.469 111V105.608C190.469 104.051 189.621 103.272 187.924 103.272C187.381 103.272 186.885 103.336 186.437 103.464C185.999 103.581 185.557 103.736 185.109 103.928L185.253 104.872C185.669 104.669 186.095 104.509 186.533 104.392C186.97 104.264 187.413 104.2 187.861 104.2C188.341 104.2 188.719 104.317 188.997 104.552C189.285 104.776 189.429 105.144 189.429 105.656V106.152C188.575 106.237 187.839 106.355 187.221 106.504C186.613 106.653 186.111 106.845 185.717 107.08C185.322 107.315 185.029 107.597 184.837 107.928C184.655 108.259 184.565 108.648 184.565 109.096C184.565 109.768 184.773 110.28 185.189 110.632C185.615 110.984 186.159 111.16 186.821 111.16C187.365 111.16 187.855 111.048 188.293 110.824C188.741 110.6 189.141 110.323 189.493 109.992L189.669 111H190.469ZM189.429 109.128C189.055 109.469 188.655 109.747 188.229 109.96C187.802 110.163 187.386 110.264 186.981 110.264C186.575 110.264 186.245 110.163 185.989 109.96C185.743 109.747 185.621 109.437 185.621 109.032C185.621 108.776 185.679 108.541 185.797 108.328C185.914 108.104 186.117 107.907 186.405 107.736C186.693 107.565 187.082 107.416 187.573 107.288C188.063 107.16 188.682 107.059 189.429 106.984V109.128ZM198.905 111V99.512L197.849 99.704V103.704C197.582 103.587 197.283 103.496 196.953 103.432C196.622 103.357 196.265 103.32 195.881 103.32C195.422 103.32 194.985 103.405 194.569 103.576C194.153 103.747 193.785 104.003 193.465 104.344C193.145 104.685 192.889 105.112 192.697 105.624C192.515 106.136 192.425 106.739 192.425 107.432C192.425 108.072 192.505 108.627 192.665 109.096C192.825 109.555 193.043 109.939 193.321 110.248C193.609 110.557 193.934 110.787 194.297 110.936C194.67 111.085 195.065 111.16 195.481 111.16C196.035 111.16 196.505 111.037 196.889 110.792C197.283 110.536 197.625 110.237 197.913 109.896L198.105 111H198.905ZM197.849 108.856C197.507 109.261 197.155 109.592 196.793 109.848C196.43 110.093 196.025 110.216 195.577 110.216C194.969 110.216 194.467 109.976 194.073 109.496C193.689 109.016 193.497 108.312 193.497 107.384C193.497 106.851 193.555 106.387 193.673 105.992C193.801 105.597 193.971 105.272 194.185 105.016C194.409 104.749 194.665 104.552 194.953 104.424C195.251 104.296 195.571 104.232 195.913 104.232C196.307 104.232 196.654 104.269 196.953 104.344C197.251 104.419 197.55 104.531 197.849 104.68V108.856Z" fill="#4A555A"/>
<rect x="0.5" y="0.5" width="299" height="172" rx="15.5" stroke="#DBDBDB"/>
<defs>
<clipPath id="clip0_1_84">
<rect width="18" height="18" fill="white" transform="translate(221 20)"/>
</clipPath>
<clipPath id="clip1_1_84">
<rect width="18" height="18" fill="white" transform="translate(244 20)"/>
</clipPath>
<clipPath id="clip2_1_84">
<rect width="18" height="18" fill="white" transform="translate(264 20)"/>
</clipPath>
</defs>
</svg>
