<svg width="300" height="173" viewBox="0 0 300 173" fill="none"
  xmlns="http://www.w3.org/2000/svg">
  <rect x="0.5" y="0.5" width="299" height="172" rx="15.5" fill="white"/>
  <rect x="16" y="16" width="148" height="24" rx="7" fill="#F0EEEE"/>
  <rect x="47" y="58" width="175" height="18" rx="7" fill="#F0EEEE"/>
  <path d="M16.5859 64.375H37.2891C37.6113 64.375 37.875 64.6387 37.875 64.9609V77.6562C37.875 78.9502 36.8252 80 35.5312 80H18.3438C17.0498 80 16 78.9502 16 77.6562V64.9609C16 64.6387 16.2637 64.375 16.5859 64.375ZM37.875 62.2266V60.4688C37.875 59.1748 36.8252 58.125 35.5312 58.125H33.1875V55.5859C33.1875 55.2637 32.9238 55 32.6016 55H30.6484C30.3262 55 30.0625 55.2637 30.0625 55.5859V58.125H23.8125V55.5859C23.8125 55.2637 23.5488 55 23.2266 55H21.2734C20.9512 55 20.6875 55.2637 20.6875 55.5859V58.125H18.3438C17.0498 58.125 16 59.1748 16 60.4688V62.2266C16 62.5488 16.2637 62.8125 16.5859 62.8125H37.2891C37.6113 62.8125 37.875 62.5488 37.875 62.2266Z" fill="#b2b2b2"/>
  <rect x="47" y="95" width="111" height="18" rx="7" fill="#F0EEEE"/>
  <path d="M26.4115 117.496C19.3169 107.21 18 106.155 18 102.375C18 97.1973 22.1973 93 27.375 93C32.5527 93 36.75 97.1973 36.75 102.375C36.75 106.155 35.4331 107.21 28.3385 117.496C27.8729 118.168 26.8771 118.168 26.4115 117.496ZM27.375 106.281C29.5324 106.281 31.2812 104.532 31.2812 102.375C31.2812 100.218 29.5324 98.4688 27.375 98.4688C25.2176 98.4688 23.4688 100.218 23.4688 102.375C23.4688 104.532 25.2176 106.281 27.375 106.281Z" fill="#b2b2b2"/>
  <rect x="146" y="135" width="61" height="18" rx="9" fill="#F0EEEE"/>
  <rect x="217" y="135" width="61" height="18" rx="9" fill="#F0EEEE"/>
  <rect x="101" y="135" width="38" height="18" rx="9" fill="#F0EEEE"/>
  <rect x="16" y="135" width="78" height="18" rx="9" fill="#F0EEEE"/>
  <circle cx="230" cy="29" r="17.5" fill="#b2b2b2" stroke="white"/>
  <g clip-path="url(#clip0_1_15)">
    <path d="M230 30.125C232.795 30.125 235.062 27.8574 235.062 25.0625C235.062 22.2676 232.795 20 230 20C227.205 20 224.938 22.2676 224.938 25.0625C224.938 27.8574 227.205 30.125 230 30.125ZM234.5 31.25H232.563C231.782 31.6086 230.914 31.8125 230 31.8125C229.086 31.8125 228.221 31.6086 227.437 31.25H225.5C223.014 31.25 221 33.2645 221 35.75V36.3125C221 37.2441 221.756 38 222.688 38H237.312C238.244 38 239 37.2441 239 36.3125V35.75C239 33.2645 236.986 31.25 234.5 31.25Z" fill="white"/>
  </g>
  <circle cx="253" cy="29" r="17.5" fill="#d2d2d2" stroke="white"/>
  <g clip-path="url(#clip1_1_15)">
    <path d="M253 30.125C255.795 30.125 258.062 27.8574 258.062 25.0625C258.062 22.2676 255.795 20 253 20C250.205 20 247.938 22.2676 247.938 25.0625C247.938 27.8574 250.205 30.125 253 30.125ZM257.5 31.25H255.563C254.782 31.6086 253.914 31.8125 253 31.8125C252.086 31.8125 251.221 31.6086 250.437 31.25H248.5C246.014 31.25 244 33.2645 244 35.75V36.3125C244 37.2441 244.756 38 245.688 38H260.312C261.244 38 262 37.2441 262 36.3125V35.75C262 33.2645 259.986 31.25 257.5 31.25Z" fill="white"/>
  </g>
  <circle cx="273" cy="29" r="17.5" fill="#c2c2c2" stroke="white"/>
  <g clip-path="url(#clip2_1_15)">
    <path d="M273 30.125C275.795 30.125 278.062 27.8574 278.062 25.0625C278.062 22.2676 275.795 20 273 20C270.205 20 267.938 22.2676 267.938 25.0625C267.938 27.8574 270.205 30.125 273 30.125ZM277.5 31.25H275.563C274.782 31.6086 273.914 31.8125 273 31.8125C272.086 31.8125 271.221 31.6086 270.437 31.25H268.5C266.014 31.25 264 33.2645 264 35.75V36.3125C264 37.2441 264.756 38 265.688 38H280.312C281.244 38 282 37.2441 282 36.3125V35.75C282 33.2645 279.986 31.25 277.5 31.25Z" fill="white"/>
  </g>
  <rect x="0.5" y="0.5" width="299" height="172" rx="15.5" stroke="#DBDBDB"/>
  <defs>
    <clipPath id="clip0_1_15">
      <rect width="18" height="18" fill="white" transform="translate(221 20)"/>
    </clipPath>
    <clipPath id="clip1_1_15">
      <rect width="18" height="18" fill="white" transform="translate(244 20)"/>
    </clipPath>
    <clipPath id="clip2_1_15">
      <rect width="18" height="18" fill="white" transform="translate(264 20)"/>
    </clipPath>
  </defs>
</svg>
