<svg width="300" height="173" viewBox="0 0 300 173" fill="none" xmlns="http://www.w3.org/2000/svg">
<rect x="0.5" y="0.5" width="299" height="172" rx="15.5" fill="white"/>
<path d="M16.5859 64.375H37.2891C37.6113 64.375 37.875 64.6387 37.875 64.9609V77.6562C37.875 78.9502 36.8252 80 35.5312 80H18.3438C17.0498 80 16 78.9502 16 77.6562V64.9609C16 64.6387 16.2637 64.375 16.5859 64.375ZM37.875 62.2266V60.4688C37.875 59.1748 36.8252 58.125 35.5312 58.125H33.1875V55.5859C33.1875 55.2637 32.9238 55 32.6016 55H30.6484C30.3262 55 30.0625 55.2637 30.0625 55.5859V58.125H23.8125V55.5859C23.8125 55.2637 23.5488 55 23.2266 55H21.2734C20.9512 55 20.6875 55.2637 20.6875 55.5859V58.125H18.3438C17.0498 58.125 16 59.1748 16 60.4688V62.2266C16 62.5488 16.2637 62.8125 16.5859 62.8125H37.2891C37.6113 62.8125 37.875 62.5488 37.875 62.2266Z" fill="#F0EEEE"/>
<path d="M26.4115 117.496C19.3169 107.21 18 106.155 18 102.375C18 97.1973 22.1973 93 27.375 93C32.5527 93 36.75 97.1973 36.75 102.375C36.75 106.155 35.4331 107.21 28.3385 117.496C27.8729 118.168 26.8771 118.168 26.4115 117.496ZM27.375 106.281C29.5324 106.281 31.2812 104.532 31.2812 102.375C31.2812 100.218 29.5324 98.4688 27.375 98.4688C25.2176 98.4688 23.4688 100.218 23.4688 102.375C23.4688 104.532 25.2176 106.281 27.375 106.281Z" fill="#F0EEEE"/>
<rect x="146" y="135" width="61" height="18" rx="9" fill="#F0EEEE"/>
<rect x="217" y="135" width="61" height="18" rx="9" fill="#F0EEEE"/>
<rect x="101" y="135" width="38" height="18" rx="9" fill="#F0EEEE"/>
<rect x="16" y="135" width="78" height="18" rx="9" fill="#F0EEEE"/>
<circle cx="253" cy="29" r="17.5" fill="#D9D9D9" stroke="white"/>
<g clip-path="url(#clip0_16_30)">
<path d="M253 30.125C255.795 30.125 258.062 27.8574 258.062 25.0625C258.062 22.2676 255.795 20 253 20C250.205 20 247.938 22.2676 247.938 25.0625C247.938 27.8574 250.205 30.125 253 30.125ZM257.5 31.25H255.563C254.782 31.6086 253.914 31.8125 253 31.8125C252.086 31.8125 251.221 31.6086 250.437 31.25H248.5C246.014 31.25 244 33.2645 244 35.75V36.3125C244 37.2441 244.756 38 245.688 38H260.312C261.244 38 262 37.2441 262 36.3125V35.75C262 33.2645 259.986 31.25 257.5 31.25Z" fill="white"/>
</g>
<circle cx="273" cy="29" r="17.5" fill="#D9D9D9" stroke="white"/>
<g clip-path="url(#clip1_16_30)">
<path d="M273 30.125C275.795 30.125 278.062 27.8574 278.062 25.0625C278.062 22.2676 275.795 20 273 20C270.205 20 267.938 22.2676 267.938 25.0625C267.938 27.8574 270.205 30.125 273 30.125ZM277.5 31.25H275.563C274.782 31.6086 273.914 31.8125 273 31.8125C272.086 31.8125 271.221 31.6086 270.437 31.25H268.5C266.014 31.25 264 33.2645 264 35.75V36.3125C264 37.2441 264.756 38 265.688 38H280.312C281.244 38 282 37.2441 282 36.3125V35.75C282 33.2645 279.986 31.25 277.5 31.25Z" fill="white"/>
</g>
<path d="M27.624 27.912C27.624 28.712 27.376 29.32 26.88 29.736C26.4 30.152 25.72 30.36 24.84 30.36H23.568V25.536H24.888C25.784 25.536 26.464 25.744 26.928 26.16C27.392 26.56 27.624 27.144 27.624 27.912ZM28.584 32.376C29.576 31.944 30.336 31.344 30.864 30.576C31.392 29.792 31.656 28.824 31.656 27.672C31.656 25.96 31.096 24.664 29.976 23.784C28.872 22.888 27.312 22.44 25.296 22.44H19.512V39H23.592V33.312H24.72L28.344 39.168L32.544 38.472L28.584 32.376ZM37.9736 23.76C37.9736 23.152 37.7736 22.672 37.3736 22.32C36.9896 21.968 36.5016 21.792 35.9096 21.792C35.3336 21.792 34.8456 21.968 34.4456 22.32C34.0456 22.672 33.8456 23.152 33.8456 23.76C33.8456 24.352 34.0456 24.824 34.4456 25.176C34.8456 25.528 35.3336 25.704 35.9096 25.704C36.5016 25.704 36.9896 25.528 37.3736 25.176C37.7736 24.824 37.9736 24.352 37.9736 23.76ZM37.7336 39V27.24H34.0856V39H37.7336ZM51.0229 27.24H47.4949L45.3589 34.512L43.1749 27.072L39.2869 27.528L43.2949 39.048H46.9189L51.0229 27.24ZM62.2599 33.096C62.2599 32.248 62.1559 31.456 61.9479 30.72C61.7399 29.968 61.4199 29.32 60.9879 28.776C60.5719 28.216 60.0359 27.784 59.3799 27.48C58.7239 27.16 57.9479 27 57.0519 27C56.2519 27 55.5079 27.144 54.8199 27.432C54.1479 27.704 53.5639 28.112 53.0679 28.656C52.5879 29.184 52.2039 29.832 51.9159 30.6C51.6439 31.352 51.5079 32.208 51.5079 33.168C51.5079 34.224 51.6519 35.136 51.9399 35.904C52.2439 36.656 52.6599 37.28 53.1879 37.776C53.7319 38.272 54.3719 38.64 55.1079 38.88C55.8599 39.12 56.6759 39.24 57.5559 39.24C58.4839 39.24 59.3319 39.128 60.0999 38.904C60.8839 38.664 61.5959 38.336 62.2359 37.92L61.8759 35.376C61.2199 35.744 60.5719 36.04 59.9319 36.264C59.3079 36.488 58.6679 36.6 58.0119 36.6C57.2119 36.6 56.5559 36.408 56.0439 36.024C55.5319 35.624 55.2279 34.96 55.1319 34.032H62.1879C62.2199 33.936 62.2359 33.8 62.2359 33.624C62.2519 33.448 62.2599 33.272 62.2599 33.096ZM58.8039 32.04H55.1079C55.1719 31.128 55.3639 30.456 55.6839 30.024C56.0199 29.576 56.4439 29.352 56.9559 29.352C58.0599 29.352 58.6759 30.248 58.8039 32.04ZM71.7851 30.696L71.1851 27C70.3211 27.064 69.6171 27.344 69.0731 27.84C68.5451 28.32 68.1051 28.896 67.7531 29.568L67.3691 27.24H64.2011V39H67.8251V32.472C68.2731 31.992 68.8251 31.592 69.4811 31.272C70.1371 30.952 70.9051 30.76 71.7851 30.696ZM85.2716 38.928L84.8156 35.952C84.5276 36.032 84.2396 36.072 83.9516 36.072C82.9916 36.072 82.5116 35.608 82.5116 34.68V30.192H85.1996L84.7436 27.24H82.5116V23.184L78.9116 23.736V27.24H77.3516V30.192H78.9116V35.256C78.9116 36.008 79.0156 36.64 79.2236 37.152C79.4316 37.648 79.7196 38.048 80.0876 38.352C80.4716 38.64 80.9276 38.848 81.4556 38.976C81.9836 39.104 82.5596 39.168 83.1836 39.168C83.6636 39.168 84.0556 39.144 84.3596 39.096C84.6796 39.064 84.9836 39.008 85.2716 38.928ZM94.5664 30.696L93.9664 27C93.1024 27.064 92.3984 27.344 91.8544 27.84C91.3264 28.32 90.8864 28.896 90.5344 29.568L90.1504 27.24H86.9824V39H90.6064V32.472C91.0544 31.992 91.6064 31.592 92.2624 31.272C92.9184 30.952 93.6864 30.76 94.5664 30.696ZM99.9893 23.76C99.9893 23.152 99.7893 22.672 99.3893 22.32C99.0053 21.968 98.5173 21.792 97.9253 21.792C97.3493 21.792 96.8613 21.968 96.4613 22.32C96.0613 22.672 95.8613 23.152 95.8613 23.76C95.8613 24.352 96.0613 24.824 96.4613 25.176C96.8613 25.528 97.3493 25.704 97.9253 25.704C98.5173 25.704 99.0053 25.528 99.3893 25.176C99.7893 24.824 99.9893 24.352 99.9893 23.76ZM99.7493 39V27.24H96.1013V39H99.7493ZM113.351 32.808C113.351 31.816 113.239 30.96 113.015 30.24C112.807 29.504 112.511 28.896 112.127 28.416C111.759 27.936 111.319 27.584 110.807 27.36C110.295 27.12 109.735 27 109.127 27C108.743 27 108.391 27.056 108.071 27.168C107.751 27.264 107.447 27.4 107.159 27.576C106.887 27.736 106.631 27.928 106.391 28.152C106.167 28.36 105.951 28.576 105.743 28.8L105.503 27.24H102.311V43.464L105.935 42.912V38.712C106.271 38.824 106.631 38.92 107.015 39C107.415 39.08 107.879 39.12 108.407 39.12C109.047 39.12 109.663 39 110.255 38.76C110.863 38.52 111.391 38.144 111.839 37.632C112.303 37.12 112.671 36.472 112.943 35.688C113.215 34.888 113.351 33.928 113.351 32.808ZM109.727 33.048C109.727 34.2 109.519 35.024 109.103 35.52C108.703 36.016 108.199 36.264 107.591 36.264C107.223 36.264 106.919 36.24 106.679 36.192C106.439 36.128 106.191 36.032 105.935 35.904V31.44C106.239 31.072 106.551 30.784 106.871 30.576C107.191 30.352 107.551 30.24 107.951 30.24C108.463 30.24 108.887 30.464 109.223 30.912C109.559 31.344 109.727 32.056 109.727 33.048ZM131.541 39L131.037 35.832H124.893L128.133 32.688C128.629 32.224 129.069 31.776 129.453 31.344C129.837 30.912 130.157 30.48 130.413 30.048C130.685 29.616 130.885 29.168 131.013 28.704C131.157 28.24 131.229 27.728 131.229 27.168C131.229 25.712 130.749 24.576 129.789 23.76C128.829 22.928 127.509 22.512 125.829 22.512C124.677 22.512 123.669 22.664 122.805 22.968C121.941 23.272 121.157 23.656 120.453 24.12L120.933 27.528C121.637 27.016 122.349 26.616 123.069 26.328C123.789 26.024 124.509 25.872 125.229 25.872C125.901 25.872 126.413 26.024 126.765 26.328C127.133 26.616 127.317 27.04 127.317 27.6C127.317 28.144 127.181 28.632 126.909 29.064C126.637 29.496 126.229 29.992 125.685 30.552L120.093 36.144V39H131.541ZM146.727 30.888C146.727 29.528 146.567 28.328 146.247 27.288C145.927 26.232 145.471 25.352 144.879 24.648C144.287 23.928 143.575 23.384 142.743 23.016C141.927 22.648 141.015 22.464 140.007 22.464C138.999 22.464 138.079 22.648 137.247 23.016C136.415 23.384 135.703 23.928 135.111 24.648C134.519 25.352 134.055 26.232 133.719 27.288C133.399 28.328 133.239 29.528 133.239 30.888C133.239 32.248 133.399 33.456 133.719 34.512C134.055 35.552 134.519 36.432 135.111 37.152C135.703 37.856 136.415 38.392 137.247 38.76C138.079 39.128 138.999 39.312 140.007 39.312C141.015 39.312 141.927 39.128 142.743 38.76C143.575 38.392 144.287 37.856 144.879 37.152C145.471 36.432 145.927 35.552 146.247 34.512C146.567 33.456 146.727 32.248 146.727 30.888ZM142.767 30.888C142.767 32.632 142.543 33.968 142.095 34.896C141.647 35.808 140.951 36.264 140.007 36.264C139.063 36.264 138.359 35.808 137.895 34.896C137.447 33.968 137.223 32.632 137.223 30.888C137.223 29.144 137.447 27.816 137.895 26.904C138.359 25.976 139.063 25.512 140.007 25.512C140.951 25.512 141.647 25.976 142.095 26.904C142.543 27.816 142.767 29.144 142.767 30.888ZM159.877 39L159.373 35.832H153.229L156.469 32.688C156.965 32.224 157.405 31.776 157.789 31.344C158.173 30.912 158.493 30.48 158.749 30.048C159.021 29.616 159.221 29.168 159.349 28.704C159.493 28.24 159.565 27.728 159.565 27.168C159.565 25.712 159.085 24.576 158.125 23.76C157.165 22.928 155.845 22.512 154.165 22.512C153.013 22.512 152.005 22.664 151.141 22.968C150.277 23.272 149.493 23.656 148.789 24.12L149.269 27.528C149.973 27.016 150.685 26.616 151.405 26.328C152.125 26.024 152.845 25.872 153.565 25.872C154.237 25.872 154.749 26.024 155.101 26.328C155.469 26.616 155.653 27.04 155.653 27.6C155.653 28.144 155.517 28.632 155.245 29.064C154.973 29.496 154.565 29.992 154.021 30.552L148.429 36.144V39H159.877ZM172.903 34.464C172.903 33.392 172.623 32.544 172.063 31.92C171.519 31.296 170.759 30.824 169.783 30.504C170.615 30.2 171.295 29.76 171.823 29.184C172.367 28.592 172.639 27.776 172.639 26.736C172.639 25.472 172.143 24.448 171.151 23.664C170.175 22.864 168.775 22.464 166.951 22.464C165.879 22.464 164.895 22.608 163.999 22.896C163.103 23.168 162.335 23.52 161.695 23.952L162.199 27.024C162.807 26.608 163.463 26.28 164.167 26.04C164.871 25.8 165.599 25.68 166.351 25.68C167.903 25.68 168.679 26.216 168.679 27.288C168.679 27.848 168.439 28.304 167.959 28.656C167.479 28.992 166.663 29.16 165.511 29.16H163.999L164.479 32.088H165.463C166.743 32.088 167.647 32.264 168.175 32.616C168.719 32.952 168.991 33.472 168.991 34.176C168.991 34.8 168.759 35.28 168.295 35.616C167.847 35.936 167.223 36.096 166.423 36.096C165.607 36.096 164.823 35.992 164.071 35.784C163.335 35.56 162.631 35.264 161.959 34.896L161.455 38.04C162.143 38.424 162.935 38.736 163.831 38.976C164.743 39.2 165.727 39.312 166.783 39.312C167.663 39.312 168.471 39.208 169.207 39C169.959 38.792 170.607 38.488 171.151 38.088C171.695 37.672 172.119 37.16 172.423 36.552C172.743 35.944 172.903 35.248 172.903 34.464Z" fill="#0B2B44"/>
<path d="M53.416 70.312V61.96H52.312V70.296C52.312 70.9253 52.1573 71.3893 51.848 71.688C51.5493 71.9867 51.128 72.136 50.584 72.136C50.3707 72.136 50.168 72.1253 49.976 72.104C49.784 72.072 49.6027 72.0293 49.432 71.976L49.592 73C49.7307 73.0213 49.88 73.0427 50.04 73.064C50.2107 73.0853 50.3867 73.096 50.568 73.096C51.4107 73.096 52.0933 72.872 52.616 72.424C53.1493 71.9653 53.416 71.2613 53.416 70.312ZM61.9641 73V65.432H60.9081V70.904C60.4921 71.3093 60.0815 71.6293 59.6761 71.864C59.2708 72.088 58.8655 72.2 58.4601 72.2C57.9801 72.2 57.6228 72.0667 57.3881 71.8C57.1641 71.5227 57.0521 71.1387 57.0521 70.648V65.432H55.9961V70.84C55.9961 71.5653 56.1775 72.136 56.5401 72.552C56.9135 72.9573 57.4841 73.16 58.2521 73.16C58.7641 73.16 59.2388 73.0427 59.6761 72.808C60.1241 72.5627 60.5561 72.2533 60.9721 71.88L61.1481 73H61.9641ZM65.5871 73V61.512L64.5471 61.704V73H65.5871ZM74.1531 65.432H73.0651L70.8251 71.784L68.4731 65.336L67.4491 65.528L70.3131 73.048L69.9611 73.96C69.8118 74.3333 69.6358 74.5947 69.4331 74.744C69.2411 74.8933 68.9905 74.968 68.6811 74.968C68.5638 74.968 68.4518 74.9627 68.3451 74.952C68.2385 74.9413 68.1425 74.9253 68.0571 74.904L68.2011 75.832C68.2545 75.8427 68.3131 75.8533 68.3771 75.864C68.4518 75.8747 68.5318 75.88 68.6171 75.88C69.1825 75.88 69.6411 75.7413 69.9931 75.464C70.3558 75.1867 70.6758 74.68 70.9531 73.944L74.1531 65.432ZM85.674 70.072C85.674 69.304 85.4713 68.696 85.066 68.248C84.6607 67.8 84.106 67.4747 83.402 67.272C83.69 67.176 83.9567 67.0587 84.202 66.92C84.458 66.7707 84.6767 66.5947 84.858 66.392C85.05 66.1787 85.1993 65.9333 85.306 65.656C85.4127 65.3787 85.466 65.064 85.466 64.712C85.466 64.3493 85.3967 64.0027 85.258 63.672C85.13 63.3307 84.9327 63.0373 84.666 62.792C84.3993 62.5467 84.0633 62.3493 83.658 62.2C83.2527 62.0507 82.778 61.976 82.234 61.976C81.5833 61.976 81.0073 62.0667 80.506 62.248C80.0153 62.4293 79.562 62.6693 79.146 62.968L79.29 63.976C79.6953 63.6667 80.1327 63.416 80.602 63.224C81.082 63.032 81.61 62.936 82.186 62.936C82.9113 62.936 83.4553 63.1067 83.818 63.448C84.1807 63.7893 84.362 64.2267 84.362 64.76C84.362 65.4 84.1273 65.9067 83.658 66.28C83.1887 66.6427 82.4847 66.824 81.546 66.824H80.81L80.954 67.768H81.434C82.522 67.768 83.3167 67.9813 83.818 68.408C84.3193 68.824 84.57 69.384 84.57 70.088C84.57 70.7493 84.3407 71.2773 83.882 71.672C83.434 72.056 82.826 72.248 82.058 72.248C81.482 72.248 80.97 72.1733 80.522 72.024C80.074 71.864 79.6153 71.624 79.146 71.304L78.97 72.36C79.354 72.6053 79.8073 72.808 80.33 72.968C80.8527 73.128 81.4073 73.208 81.994 73.208C82.538 73.208 83.034 73.1333 83.482 72.984C83.9407 72.824 84.33 72.6053 84.65 72.328C84.97 72.0507 85.2207 71.72 85.402 71.336C85.5833 70.952 85.674 70.5307 85.674 70.072ZM91.473 69V67.944H87.601V69H91.473ZM95.734 73V62.136H94.87L92.214 63.352L92.358 64.216L94.678 63.288V73H95.734ZM106.334 67.576C106.334 66.7227 106.243 65.9493 106.062 65.256C105.88 64.5627 105.614 63.976 105.262 63.496C104.92 63.0053 104.504 62.632 104.014 62.376C103.523 62.1093 102.974 61.976 102.366 61.976C101.758 61.976 101.208 62.1093 100.718 62.376C100.227 62.6427 99.8108 63.0213 99.4695 63.512C99.1282 63.992 98.8615 64.5787 98.6695 65.272C98.4882 65.9653 98.3975 66.744 98.3975 67.608C98.3975 68.4613 98.4882 69.2347 98.6695 69.928C98.8508 70.6213 99.1122 71.2133 99.4535 71.704C99.8055 72.184 100.227 72.5573 100.718 72.824C101.208 73.08 101.758 73.208 102.366 73.208C102.974 73.208 103.523 73.0747 104.014 72.808C104.504 72.5413 104.92 72.168 105.262 71.688C105.603 71.1973 105.864 70.6053 106.046 69.912C106.238 69.2187 106.334 68.44 106.334 67.576ZM105.246 67.592C105.246 68.296 105.182 68.936 105.054 69.512C104.926 70.088 104.739 70.584 104.494 71C104.259 71.4053 103.96 71.72 103.598 71.944C103.235 72.1573 102.824 72.264 102.366 72.264C101.896 72.264 101.48 72.1573 101.118 71.944C100.766 71.72 100.467 71.4053 100.222 71C99.9868 70.584 99.8055 70.088 99.6775 69.512C99.5495 68.936 99.4855 68.296 99.4855 67.592C99.4855 66.888 99.5495 66.248 99.6775 65.672C99.8055 65.096 99.9868 64.6053 100.222 64.2C100.467 63.784 100.766 63.4693 101.118 63.256C101.48 63.032 101.896 62.92 102.366 62.92C102.824 62.92 103.235 63.032 103.598 63.256C103.96 63.4693 104.259 63.784 104.494 64.2C104.739 64.6053 104.926 65.096 105.054 65.672C105.182 66.248 105.246 66.888 105.246 67.592Z" fill="#4A555A"/>
<path d="M58.792 109.088V104.208H54.888L55.048 105.2H57.704V108.512C57.3307 108.736 56.9467 108.907 56.552 109.024C56.1573 109.141 55.6987 109.2 55.176 109.2C54.5253 109.2 53.9493 109.088 53.448 108.864C52.9467 108.64 52.52 108.325 52.168 107.92C51.8267 107.504 51.5653 107.008 51.384 106.432C51.2027 105.845 51.112 105.195 51.112 104.48C51.112 103.765 51.2027 103.12 51.384 102.544C51.5653 101.957 51.8213 101.456 52.152 101.04C52.4933 100.624 52.904 100.304 53.384 100.08C53.8747 99.856 54.4293 99.744 55.048 99.744C55.688 99.744 56.2587 99.8453 56.76 100.048C57.272 100.251 57.7307 100.517 58.136 100.848L58.328 99.712C57.9013 99.4027 57.4213 99.168 56.888 99.008C56.3547 98.8373 55.7467 98.752 55.064 98.752C54.296 98.752 53.5973 98.896 52.968 99.184C52.3387 99.4613 51.8 99.8507 51.352 100.352C50.9147 100.853 50.5733 101.461 50.328 102.176C50.0933 102.88 49.976 103.653 49.976 104.496C49.976 105.339 50.0933 106.112 50.328 106.816C50.5627 107.509 50.8987 108.112 51.336 108.624C51.784 109.125 52.328 109.515 52.968 109.792C53.608 110.069 54.3387 110.208 55.16 110.208C55.8747 110.208 56.5307 110.107 57.128 109.904C57.7253 109.701 58.28 109.429 58.792 109.088ZM65.2294 103.264L65.0534 102.272C64.744 102.283 64.456 102.336 64.1894 102.432C63.9227 102.528 63.6774 102.656 63.4534 102.816C63.2294 102.976 63.0267 103.157 62.8454 103.36C62.664 103.563 62.504 103.771 62.3654 103.984L62.1254 102.432H61.3414V110H62.3974V105.248C62.5254 104.992 62.6854 104.752 62.8774 104.528C63.0694 104.293 63.288 104.085 63.5334 103.904C63.7787 103.723 64.0454 103.579 64.3334 103.472C64.6214 103.355 64.92 103.285 65.2294 103.264ZM71.9841 110V104.608C71.9841 103.051 71.1361 102.272 69.4401 102.272C68.8961 102.272 68.4001 102.336 67.9521 102.464C67.5148 102.581 67.0721 102.736 66.6241 102.928L66.7681 103.872C67.1841 103.669 67.6108 103.509 68.0481 103.392C68.4855 103.264 68.9281 103.2 69.3761 103.2C69.8561 103.2 70.2348 103.317 70.5121 103.552C70.8001 103.776 70.9441 104.144 70.9441 104.656V105.152C70.0908 105.237 69.3548 105.355 68.7361 105.504C68.1281 105.653 67.6268 105.845 67.2321 106.08C66.8375 106.315 66.5441 106.597 66.3521 106.928C66.1708 107.259 66.0801 107.648 66.0801 108.096C66.0801 108.768 66.2881 109.28 66.7041 109.632C67.1308 109.984 67.6748 110.16 68.3361 110.16C68.8801 110.16 69.3708 110.048 69.8081 109.824C70.2561 109.6 70.6561 109.323 71.0081 108.992L71.1841 110H71.9841ZM70.9441 108.128C70.5708 108.469 70.1708 108.747 69.7441 108.96C69.3175 109.163 68.9015 109.264 68.4961 109.264C68.0908 109.264 67.7601 109.163 67.5041 108.96C67.2588 108.747 67.1361 108.437 67.1361 108.032C67.1361 107.776 67.1948 107.541 67.3121 107.328C67.4295 107.104 67.6321 106.907 67.9201 106.736C68.2081 106.565 68.5975 106.416 69.0881 106.288C69.5788 106.16 70.1975 106.059 70.9441 105.984V108.128ZM80.3563 110V104.592C80.3563 103.856 80.1696 103.285 79.7963 102.88C79.4229 102.475 78.8576 102.272 78.1003 102.272C77.5883 102.272 77.1083 102.395 76.6603 102.64C76.2229 102.875 75.7963 103.179 75.3803 103.552L75.2043 102.432H74.3883V110H75.4443V104.528C75.8603 104.123 76.2709 103.803 76.6763 103.568C77.0816 103.333 77.4869 103.216 77.8923 103.216C78.3723 103.216 78.7243 103.355 78.9483 103.632C79.1829 103.909 79.3003 104.293 79.3003 104.784V110H80.3563ZM88.7953 110V98.512L87.7393 98.704V102.704C87.4726 102.587 87.1739 102.496 86.8433 102.432C86.5126 102.357 86.1553 102.32 85.7713 102.32C85.3126 102.32 84.8753 102.405 84.4593 102.576C84.0433 102.747 83.6753 103.003 83.3553 103.344C83.0353 103.685 82.7793 104.112 82.5872 104.624C82.4059 105.136 82.3153 105.739 82.3153 106.432C82.3153 107.072 82.3953 107.627 82.5553 108.096C82.7153 108.555 82.9339 108.939 83.2113 109.248C83.4993 109.557 83.8246 109.787 84.1873 109.936C84.5606 110.085 84.9553 110.16 85.3713 110.16C85.9259 110.16 86.3953 110.037 86.7793 109.792C87.1739 109.536 87.5153 109.237 87.8033 108.896L87.9953 110H88.7953ZM87.7393 107.856C87.3979 108.261 87.0459 108.592 86.6833 108.848C86.3206 109.093 85.9153 109.216 85.4673 109.216C84.8593 109.216 84.3579 108.976 83.9633 108.496C83.5793 108.016 83.3873 107.312 83.3873 106.384C83.3873 105.851 83.4459 105.387 83.5633 104.992C83.6913 104.597 83.8619 104.272 84.0753 104.016C84.2993 103.749 84.5553 103.552 84.8433 103.424C85.1419 103.296 85.4619 103.232 85.8033 103.232C86.1979 103.232 86.5446 103.269 86.8433 103.344C87.1419 103.419 87.4406 103.531 87.7393 103.68V107.856ZM102.985 109.104L102.825 108.048C102.377 108.389 101.886 108.667 101.353 108.88C100.83 109.093 100.27 109.2 99.6726 109.2C99.0753 109.2 98.5313 109.088 98.0406 108.864C97.5606 108.629 97.15 108.304 96.8086 107.888C96.4673 107.472 96.206 106.976 96.0246 106.4C95.8433 105.813 95.7526 105.168 95.7526 104.464C95.7526 103.76 95.8433 103.12 96.0246 102.544C96.206 101.968 96.4673 101.472 96.8086 101.056C97.15 100.64 97.5606 100.32 98.0406 100.096C98.5313 99.8613 99.0806 99.744 99.6886 99.744C100.254 99.744 100.777 99.8453 101.257 100.048C101.737 100.251 102.195 100.507 102.633 100.816L102.809 99.696C102.393 99.408 101.929 99.1787 101.417 99.008C100.905 98.8373 100.334 98.752 99.7046 98.752C98.9473 98.752 98.254 98.896 97.6246 99.184C97.006 99.4613 96.4726 99.8507 96.0246 100.352C95.5766 100.853 95.23 101.461 94.9846 102.176C94.7393 102.88 94.6166 103.653 94.6166 104.496C94.6166 105.349 94.734 106.128 94.9686 106.832C95.214 107.525 95.5553 108.123 95.9926 108.624C96.4406 109.125 96.9686 109.515 97.5766 109.792C98.1953 110.069 98.878 110.208 99.6246 110.208C100.286 110.208 100.905 110.101 101.481 109.888C102.067 109.675 102.569 109.413 102.985 109.104ZM110.672 110V104.608C110.672 103.051 109.824 102.272 108.128 102.272C107.584 102.272 107.088 102.336 106.64 102.464C106.202 102.581 105.76 102.736 105.312 102.928L105.456 103.872C105.872 103.669 106.298 103.509 106.736 103.392C107.173 103.264 107.616 103.2 108.064 103.2C108.544 103.2 108.922 103.317 109.2 103.552C109.488 103.776 109.632 104.144 109.632 104.656V105.152C108.778 105.237 108.042 105.355 107.424 105.504C106.816 105.653 106.314 105.845 105.92 106.08C105.525 106.315 105.232 106.597 105.04 106.928C104.858 107.259 104.768 107.648 104.768 108.096C104.768 108.768 104.976 109.28 105.392 109.632C105.818 109.984 106.362 110.16 107.024 110.16C107.568 110.16 108.058 110.048 108.496 109.824C108.944 109.6 109.344 109.323 109.696 108.992L109.872 110H110.672ZM109.632 108.128C109.258 108.469 108.858 108.747 108.432 108.96C108.005 109.163 107.589 109.264 107.184 109.264C106.778 109.264 106.448 109.163 106.192 108.96C105.946 108.747 105.824 108.437 105.824 108.032C105.824 107.776 105.882 107.541 106 107.328C106.117 107.104 106.32 106.907 106.608 106.736C106.896 106.565 107.285 106.416 107.776 106.288C108.266 106.16 108.885 106.059 109.632 105.984V108.128ZM119.044 110V104.592C119.044 103.856 118.857 103.285 118.484 102.88C118.11 102.475 117.545 102.272 116.788 102.272C116.276 102.272 115.796 102.395 115.348 102.64C114.91 102.875 114.484 103.179 114.068 103.552L113.892 102.432H113.076V110H114.132V104.528C114.548 104.123 114.958 103.803 115.364 103.568C115.769 103.333 116.174 103.216 116.58 103.216C117.06 103.216 117.412 103.355 117.636 103.632C117.87 103.909 117.988 104.293 117.988 104.784V110H119.044ZM127.278 102.432H126.19L123.95 108.784L121.598 102.336L120.574 102.528L123.438 110.048L123.086 110.96C122.937 111.333 122.761 111.595 122.558 111.744C122.366 111.893 122.115 111.968 121.806 111.968C121.689 111.968 121.577 111.963 121.47 111.952C121.363 111.941 121.267 111.925 121.182 111.904L121.326 112.832C121.379 112.843 121.438 112.853 121.502 112.864C121.577 112.875 121.657 112.88 121.742 112.88C122.307 112.88 122.766 112.741 123.118 112.464C123.481 112.187 123.801 111.68 124.078 110.944L127.278 102.432ZM135.147 106.224C135.147 105.595 135.056 105.035 134.875 104.544C134.704 104.053 134.464 103.643 134.155 103.312C133.856 102.971 133.494 102.715 133.067 102.544C132.651 102.363 132.198 102.272 131.707 102.272C131.227 102.272 130.779 102.363 130.363 102.544C129.958 102.715 129.6 102.971 129.291 103.312C128.992 103.643 128.752 104.053 128.571 104.544C128.4 105.035 128.315 105.595 128.315 106.224C128.315 106.853 128.4 107.413 128.571 107.904C128.742 108.384 128.976 108.795 129.275 109.136C129.584 109.467 129.947 109.723 130.363 109.904C130.779 110.075 131.227 110.16 131.707 110.16C132.187 110.16 132.635 110.075 133.051 109.904C133.478 109.723 133.846 109.467 134.155 109.136C134.464 108.795 134.704 108.384 134.875 107.904C135.056 107.413 135.147 106.853 135.147 106.224ZM134.059 106.224C134.059 107.12 133.856 107.851 133.451 108.416C133.056 108.981 132.475 109.264 131.707 109.264C131.334 109.264 131.003 109.189 130.715 109.04C130.427 108.88 130.182 108.667 129.979 108.4C129.787 108.123 129.638 107.803 129.531 107.44C129.435 107.067 129.387 106.661 129.387 106.224C129.387 105.776 129.435 105.365 129.531 104.992C129.638 104.619 129.787 104.299 129.979 104.032C130.182 103.755 130.427 103.541 130.715 103.392C131.003 103.243 131.334 103.168 131.707 103.168C132.091 103.168 132.427 103.248 132.715 103.408C133.003 103.557 133.248 103.771 133.451 104.048C133.654 104.315 133.803 104.635 133.899 105.008C134.006 105.381 134.059 105.787 134.059 106.224ZM143.122 110V104.592C143.122 103.856 142.935 103.285 142.562 102.88C142.189 102.475 141.623 102.272 140.866 102.272C140.354 102.272 139.874 102.395 139.426 102.64C138.989 102.875 138.562 103.179 138.146 103.552L137.97 102.432H137.154V110H138.21V104.528C138.626 104.123 139.037 103.803 139.442 103.568C139.847 103.333 140.253 103.216 140.658 103.216C141.138 103.216 141.49 103.355 141.714 103.632C141.949 103.909 142.066 104.293 142.066 104.784V110H143.122ZM146.921 108.432H145.641L144.825 111.984L145.385 112.128L146.921 108.432ZM161.838 109.872L157.518 98.896H156.382L152.03 110H153.15L154.51 106.432H159.342L160.766 110.112L161.838 109.872ZM158.974 105.456H154.91L156.926 100.192L158.974 105.456ZM171.349 110L171.205 109.056H164.725L171.237 99.744V98.96H163.701L163.845 99.904H169.909L163.381 109.216V110H171.349Z" fill="#4A555A"/>
<rect x="0.5" y="0.5" width="299" height="172" rx="15.5" stroke="#DBDBDB"/>
<defs>
<clipPath id="clip0_16_30">
<rect width="18" height="18" fill="white" transform="translate(244 20)"/>
</clipPath>
<clipPath id="clip1_16_30">
<rect width="18" height="18" fill="white" transform="translate(264 20)"/>
</clipPath>
</defs>
</svg>
