<?xml version="1.0" encoding="UTF-8"?>
<svg width="742px" height="411px" viewBox="0 0 742 411" version="1.1" xmlns="http://www.w3.org/2000/svg" xmlns:xlink="http://www.w3.org/1999/xlink">
    <title>Combined Shape</title>
    <g id="Page-1" stroke="none" stroke-width="1" fill="none" fill-rule="evenodd">
        <g id="Group-6" transform="translate(-158.000000, -296.000000)" fill="#F3F3F3">
            <path d="M714.511013,349.916052 L717.865948,351.56335 L766.886617,351.56335 C768.733768,351.56335 770.423595,352.580888 771.291481,354.197463 L771.395638,354.402624 L775.325668,362.603845 L778.649851,369.540776 L781.995958,376.523461 L785.787823,384.436357 C786.451536,385.821397 787.714971,386.824563 789.214404,387.157058 C801.418735,389.863324 816.361844,393.224863 834.043731,397.241676 C852.701282,401.480131 865.626501,383.282557 872.819389,342.648954 L873.035601,341.410765 L873.186429,340.802904 C878.203359,320.846493 887.141216,311.087572 900,311.526141 C893.191973,316.664445 889.217403,333.714488 888.076291,362.676269 L888.042579,363.557545 L888.082983,364.419873 C889.318911,392.786602 880.91316,412.233968 862.86573,422.76197 C848.215973,431.307934 833.049178,433.826844 817.365346,430.318699 C816.187605,430.055307 814.95337,430.285878 813.950176,430.956736 C811.986307,432.270019 811.415374,434.885967 812.617471,436.889953 L812.735374,437.075976 L813.765747,438.616784 C814.4012,439.567033 814.577737,440.751907 814.246895,441.846127 C813.655949,443.800609 811.639973,444.933364 809.680105,444.450975 L809.48436,444.397323 L805.719761,443.25908 C805.250501,443.117198 804.762927,443.045099 804.272687,443.045099 C801.583932,443.045099 799.390869,445.167406 799.277306,447.82821 L799.272687,448.045099 L799.272687,491.178354 C799.272687,493.867108 797.15038,496.060172 794.489576,496.173734 L794.272687,496.178354 L793.910066,496.178354 C793.535028,496.178354 793.16181,496.230464 792.801116,496.333191 C790.715828,496.927088 789.480262,499.051178 789.965743,501.140188 L790.016325,501.335882 L804.778211,553.167762 C805.351029,555.179038 804.610598,557.325274 802.94141,558.558232 L802.752142,558.691416 L771.297838,579.761709 C770.549423,580.26305 769.680928,580.551953 768.78473,580.600338 L768.515132,580.60761 L737.847343,580.60761 C737.273113,580.60761 736.703902,580.508698 736.164511,580.315909 L735.897415,580.211714 L707.219058,568.065868 C705.086173,567.162549 702.623267,567.844628 701.254933,569.688899 L701.121801,569.877184 L689.049164,587.805215 C687.560811,590.015439 684.612604,590.659958 682.346454,589.310217 L682.148324,589.185936 L673.434709,583.437048 C673.396871,583.412084 673.358696,583.387636 673.320193,583.363711 C671.041739,581.947876 668.067392,582.586735 666.563204,584.774515 L666.434352,584.971561 L647.372534,615.647093 C646.988774,616.264664 646.474941,616.791108 645.866854,617.189725 C643.62339,618.660375 640.634431,618.093803 639.077651,615.943129 L638.944061,615.749264 L636.533259,612.071604 C635.824829,610.990901 634.655138,610.299981 633.366717,610.201172 C631.141476,610.03052 629.190645,611.64045 628.913989,613.8306 L628.893,614.037589 L622.175411,701.632324 C621.981307,704.16336 619.925705,706.134533 617.412917,706.245105 L617.190049,706.25 L563.641241,706.25 C561.692715,706.25 559.929168,705.119078 559.110814,703.365541 L559.020626,703.160476 L540.28141,657.838406 C539.736414,656.520298 538.654425,655.497693 537.307683,655.027891 C534.77082,654.142922 532.003285,655.421936 531.017762,657.893307 L530.939803,658.101994 L515.313385,702.896888 C514.637943,704.833118 512.852762,706.153071 510.819311,706.244884 L510.592394,706.25 L468.044701,706.25 C465.355946,706.25 463.162883,704.127693 463.049321,701.46689 L463.044701,701.25 L463.044701,641.990777 C463.044701,639.952819 461.80911,638.1271 459.936135,637.362297 L459.725434,637.281728 L419.576154,622.951822 C418.4854,622.562515 417.296107,622.564802 416.21082,622.953199 L415.962308,623.049681 L364.620759,644.573194 C363.026144,645.241692 361.895438,646.683679 361.619078,648.379396 L361.586725,648.612154 L355.456772,701.82223 C355.174625,704.271357 353.153732,706.137439 350.712661,706.24509 L350.489624,706.25 L306.712214,706.25 C304.02346,706.25 301.830396,704.127693 301.716834,701.46689 L301.712214,701.25 L301.712214,638.182728 C301.712214,636.549834 300.914874,635.019819 299.576453,634.084419 C297.377689,632.54774 294.373211,633.025226 292.753199,635.128681 L292.613905,635.31849 L244.533726,704.114239 C243.645096,705.385738 242.219825,706.168913 240.679517,706.244052 L240.435416,706.25 L191.553914,706.25 C191.428819,706.25 191.303767,706.245305 191.179024,706.235926 C188.497838,706.034329 186.470074,703.753564 186.556333,701.091736 L186.567988,700.87511 L194.136301,600.218788 C194.197773,599.40123 194.05726,598.581099 193.727138,597.830632 C192.645293,595.371271 189.822926,594.218286 187.342937,595.181916 L187.137108,595.267136 L165.917404,604.601445 C164.52652,605.21328 162.932883,605.159423 161.586478,604.455084 C159.207603,603.210632 158.247436,600.320368 159.372205,597.912207 L159.473736,597.707023 L189.615774,540.087967 C190.181538,539.006461 190.33217,537.75536 190.039278,536.570472 C189.394537,533.962187 186.811285,532.342946 184.202919,532.867686 L183.985538,532.916402 L164.351535,537.769724 C163.087911,538.082079 161.752289,537.889344 160.628525,537.232483 C158.310721,535.877681 157.487355,532.945512 158.723981,530.592833 L158.835036,530.392644 L218.623813,428.105602 C219.124136,427.249647 219.866517,426.563562 220.754595,426.131894 L221.000338,426.020538 L314.558618,386.631062 L317.515217,385.47949 C327.627468,381.526196 337.664443,377.451756 347.626141,373.256169 C347.37279,375.765058 347.187113,379.562561 347.010841,383.55072 L346.970267,384.474792 C346.626358,392.349707 346.301563,400.633797 345.558929,401.02073 C340.858593,403.469739 323.791416,410.985275 294.357399,423.567341 C271.157792,460.932072 272.826125,499.689213 299.362398,539.838764 C339.166807,600.063089 565.625,505.074727 565.625,469.672006 L565.624642,467.510077 C565.607106,431.591599 564.730302,366.414381 520.890114,342.995092 C506.663427,338.898151 484.917034,340.17273 453.424188,351.390762 C451.443218,352.096401 452.10723,329.980955 455.733171,321.875 C455.825121,321.990159 440.146701,329.884833 438.604209,330.483713 C437.999654,330.718435 437.874717,334.377178 437.867245,338.894009 L437.8671,339.724135 C437.868253,340.702314 437.873703,341.712106 437.879995,342.729021 L437.885513,343.601834 C437.926309,350.006882 437.961318,356.416867 437.132098,356.749578 C426.876143,360.864609 411.822604,367.654791 396.509058,374.90393 L394.670475,375.775888 L394.670475,375.775888 L392.831138,376.651401 L392.831138,376.651401 L390.99279,377.529618 L390.99279,377.529618 L389.157173,378.409687 C380.905656,382.372894 372.790026,386.366533 365.524788,390.041634 C364.233046,390.695058 364.34281,381.953967 364.835744,372.937717 L364.877687,372.185921 C364.89908,371.8099 364.92109,371.433841 364.943641,371.058404 L364.989446,370.308554 C365.088193,368.718245 365.195845,367.147097 365.306752,365.6457 C402.4475,349.321484 438.521988,331.28111 473.531074,311.526141 C523.77537,283.174229 604.102017,295.970866 714.511013,349.916052 Z M572.432618,325.907783 C597.274494,391.518101 574.172782,395.88776 595.814548,425.862735 C596.141692,426.181674 596.475607,426.503552 596.81642,426.828463 C619.497879,448.451554 647.729074,453.162372 681.510004,440.960918 C697.136849,435.800772 705.921675,431.089954 707.86448,426.828463 C711.044093,406.352422 705.505504,397.60003 691.248715,400.571287 C671.387509,406.323944 653.091743,410.649511 636.361416,413.547989 C611.265927,417.895707 610.218196,385.360209 596.81642,347.989299 C591.777282,332.696345 565.928797,301.313039 572.432618,325.907783 Z" id="Combined-Shape"></path>
        </g>
    </g>
</svg>