<?xml version="1.0" standalone="no"?>
<!DOCTYPE svg PUBLIC "-//W3C//DTD SVG 20010904//EN"
 "http://www.w3.org/TR/2001/REC-SVG-20010904/DTD/svg10.dtd">
<svg version="1.0" xmlns="http://www.w3.org/2000/svg"
 width="1080.000000pt" height="1080.000000pt" viewBox="0 0 1080.000000 1080.000000"
 preserveAspectRatio="xMidYMid meet">
<metadata>
Created by potrace 1.11, written by Peter Selinger 2001-2013
</metadata>
<g transform="translate(0.000000,1080.000000) scale(0.100000,-0.100000)"
fill="#000000" stroke="none">
<path d="M5340 7667 c-3 -3 -36 -7 -75 -10 -38 -3 -79 -8 -90 -11 -11 -2 -53
-12 -93 -21 -111 -26 -224 -74 -388 -165 -82 -45 -154 -87 -160 -92 -7 -5 -15
-25 -20 -46 -4 -20 -9 -44 -11 -52 -8 -38 -14 -174 -9 -196 5 -19 11 -24 24
-19 56 22 262 75 347 90 100 17 249 22 315 10 89 -15 215 -108 304 -224 85
-110 169 -312 201 -481 31 -164 46 -343 48 -567 1 -134 0 -141 -25 -184 -23
-39 -85 -103 -154 -159 -77 -63 -280 -182 -459 -270 -237 -115 -653 -276 -845
-325 -280 -73 -413 -101 -620 -130 -76 -11 -351 -13 -415 -4 -211 33 -331 95
-410 215 -91 137 -183 347 -201 460 -3 21 -8 43 -11 48 -10 16 -12 241 -2 301
21 132 122 389 168 428 9 8 57 31 106 51 107 45 114 48 280 120 157 68 178 79
181 99 1 9 5 73 8 142 l7 125 -53 -21 c-82 -32 -319 -129 -358 -146 -19 -8
-44 -19 -55 -23 -114 -49 -246 -105 -270 -116 -16 -7 -59 -24 -95 -39 -36 -14
-74 -30 -85 -35 -85 -38 -136 -60 -141 -60 -3 0 -24 -9 -47 -19 -23 -10 -87
-38 -142 -61 -55 -23 -110 -52 -122 -63 -11 -12 -47 -67 -78 -122 -32 -55 -67
-116 -78 -135 -11 -19 -33 -57 -49 -85 -16 -27 -38 -66 -50 -85 -26 -45 -236
-406 -258 -445 -66 -115 -123 -212 -132 -222 -17 -20 0 -89 26 -102 35 -19 55
-19 128 0 70 19 102 15 125 -13 24 -28 24 -62 0 -108 -302 -581 -294 -563
-244 -611 28 -26 62 -22 154 21 84 40 120 41 152 4 22 -26 23 -32 16 -118 -4
-50 -9 -107 -10 -126 -10 -147 -17 -241 -20 -275 -3 -22 -7 -78 -10 -125 -3
-47 -7 -112 -10 -145 -5 -63 -10 -122 -20 -265 -6 -76 -5 -88 13 -110 l20 -25
274 -3 c150 -2 283 0 295 3 21 5 55 50 242 320 30 44 66 96 80 116 15 20 32
45 39 55 168 245 173 251 207 260 32 8 74 -13 85 -42 6 -15 11 -165 13 -350 2
-295 4 -325 20 -341 16 -16 43 -18 260 -21 133 -2 251 -1 262 2 32 8 53 55 60
136 3 41 8 82 10 90 2 8 6 46 10 83 3 37 8 76 10 85 1 9 6 49 9 87 13 134 27
189 49 198 7 3 136 58 287 122 151 64 284 118 295 120 11 2 123 -33 250 -79
165 -60 233 -89 244 -105 11 -18 14 -78 13 -339 0 -175 4 -331 9 -348 16 -51
39 -55 302 -52 194 2 239 6 251 18 8 8 50 114 92 235 42 121 83 230 91 242 8
12 28 25 45 28 57 13 74 -12 174 -256 51 -123 102 -234 113 -246 19 -23 21
-23 325 -23 389 0 353 -22 371 235 3 44 7 100 10 125 2 25 7 86 10 135 3 50 8
113 10 140 6 71 13 167 20 260 9 127 15 154 37 166 17 9 26 7 47 -10 60 -48
70 -53 100 -46 32 7 40 17 170 228 92 147 109 155 202 96 78 -49 108 -35 188
90 27 42 57 84 68 93 24 22 64 26 95 11 13 -7 84 -38 158 -69 l135 -57 170 -2
c94 0 181 3 195 7 14 5 102 61 197 125 129 87 175 123 182 144 8 23 3 54 -24
151 -19 68 -39 137 -44 153 -29 89 -84 293 -83 314 0 28 11 40 42 46 53 10 55
18 57 263 1 125 2 237 2 248 2 40 34 67 77 66 85 -2 102 13 77 66 -19 40 -10
78 19 85 13 3 43 2 68 -3 47 -9 194 -6 243 4 115 26 242 93 317 167 122 121
175 271 178 510 2 118 9 259 16 294 2 11 7 45 11 75 11 80 17 107 39 168 9 24
25 56 36 72 26 37 14 43 -46 25 -59 -18 -101 -53 -143 -120 -31 -49 -79 -181
-86 -240 -9 -62 -57 -241 -86 -315 -31 -81 -93 -179 -138 -218 -44 -38 -103
-55 -168 -49 -61 6 -73 8 -138 25 -22 6 -51 13 -65 16 -94 17 -336 78 -347 87
-7 6 -27 41 -44 78 -17 36 -53 111 -79 166 -26 55 -57 108 -68 119 -20 17 -42
19 -298 19 l-277 0 -151 72 c-138 66 -314 145 -461 205 -136 57 -384 143 -529
186 -114 34 -131 38 -173 48 -10 2 -48 11 -84 20 -75 17 -98 22 -184 36 -33 5
-71 12 -85 15 -82 15 -459 32 -470 22z m608 -266 c56 -57 141 -177 167 -236 9
-22 21 -49 26 -60 10 -25 55 -166 109 -350 88 -296 159 -388 295 -380 22 2 56
6 75 9 124 24 205 42 360 83 271 70 285 72 336 38 44 -29 58 -71 59 -177 0
-89 -2 -98 -25 -123 -52 -55 -281 -146 -461 -183 -114 -24 -292 -23 -384 2
-188 51 -359 172 -428 304 -49 92 -58 140 -63 327 -2 88 -6 170 -8 182 -3 11
-8 43 -11 70 -11 77 -53 238 -96 366 -38 114 -46 157 -32 170 14 15 34 5 81
-42z"/>
<path d="M4143 7177 c-205 -104 -303 -151 -483 -232 -69 -31 -127 -58 -129
-61 -9 -8 -12 -224 -4 -237 6 -12 31 -3 124 42 248 121 594 278 647 295 12 4
23 10 23 14 2 8 7 272 5 271 -1 0 -83 -42 -183 -92z"/>
</g>
</svg>
